<svg xmlns="http://www.w3.org/2000/svg" xmlns:xlink="http://www.w3.org/1999/xlink" xmlns:lucid="lucid" width="1402" height="1002"><g transform="translate(-479 221)" lucid:page-tab-id="0_0"><path d="M500-500h1500v1500H500z" fill="#fff"/><path d="M500-194a6 6 0 0 1 6-6h1348a6 6 0 0 1 6 6v948a6 6 0 0 1-6 6H506a6 6 0 0 1-6-6z" stroke="#282c33" stroke-width="2" fill-opacity="0"/><path d="M520-135.67V-174a6 6 0 0 1 6-6h716.67a6 6 0 0 1 6 6v38.33z" stroke="#282c33" stroke-width="2" fill="#fff"/><path d="M1248.67-135.67v872.34a6 6 0 0 1-6 6H526a6 6 0 0 1-6-6v-872.34z" stroke="#282c33" stroke-width="2" fill="none"/><use xlink:href="#a" transform="matrix(1,0,0,1,520,-180) translate(306.8858024691358 27.38888888888889)"/><path d="M994.33 320c16.57 0 30 13.43 30 30v64.58c0 16.57-13.43 30-30 30h-220c-16.57 0-30-13.43-30-30V350c0-16.57 13.43-30 30-30zM1790 200c16.57 0 30 13.43 30 30v40c0 16.57-13.43 30-30 30h-260c-16.57 0-30-13.43-30-30v-40c0-16.57 13.43-30 30-30zM1790 327.7c16.57 0 30 13.44 30 30v40c0 16.58-13.43 30-30 30h-260c-16.57 0-30-13.42-30-30v-40c0-16.56 13.43-30 30-30z" stroke="#282c33" stroke-width="2" fill-opacity="0"/><path d="M1460 184.33V146a6 6 0 0 1 6-6h368a6 6 0 0 1 6 6v38.33z" stroke="#282c33" stroke-width="2" fill="#fff"/><path d="M1840 184.33v267.75a6 6 0 0 1-6 6h-368a6 6 0 0 1-6-6V184.33z" stroke="#282c33" stroke-width="2" fill="none"/><use xlink:href="#b" transform="matrix(1,0,0,1,1460,140.00000000000003) translate(126.53703703703704 27.38888888888889)"/><use xlink:href="#c" transform="matrix(1,0,0,1,1460,140.00000000000003) translate(215.21604938271605 27.38888888888889)"/><path d="M544.33-66.14v-38.34a6 6 0 0 1 6-6h668a6 6 0 0 1 6 6v38.34z" stroke="#282c33" stroke-width="2" fill="#fff"/><path d="M1224.33-66.14v282.8a6 6 0 0 1-6 6h-668a6 6 0 0 1-6-6v-282.8z" stroke="#282c33" stroke-width="2" fill="none"/><use xlink:href="#d" transform="matrix(1,0,0,1,544.3333333333333,-110.47705871684224) translate(270.74074074074076 27.38888888888889)"/><use xlink:href="#e" transform="matrix(1,0,0,1,544.3333333333333,-110.47705871684224) translate(322.820987654321 27.38888888888889)"/><path d="M810-40c16.57 0 30 13.43 30 30v40c0 16.57-13.43 30-30 30H630c-16.57 0-30-13.43-30-30v-40c0-16.57 13.43-30 30-30zM1150-40c16.57 0 30 13.43 30 30v40c0 16.57-13.43 30-30 30H970c-16.57 0-30-13.43-30-30v-40c0-16.57 13.43-30 30-30zM810 81.67c16.57 0 30 13.43 30 30v40c0 16.57-13.43 30-30 30H630c-16.57 0-30-13.43-30-30v-40c0-16.57 13.43-30 30-30zM1150 81.67c16.57 0 30 13.43 30 30v40c0 16.57-13.43 30-30 30H970c-16.57 0-30-13.43-30-30v-40c0-16.57 13.43-30 30-30z" stroke="#282c33" stroke-width="2" fill-opacity="0"/><path d="M580 571.04v-32.9a6 6 0 0 1 6-6h608a6 6 0 0 1 6 6v32.9z" stroke="#282c33" stroke-width="2" fill="#fff"/><path d="M1200 571.04V681.7a6 6 0 0 1-6 6H586a6 6 0 0 1-6-6V571.05z" stroke="#282c33" stroke-width="2" fill="none"/><use xlink:href="#f" transform="matrix(1,0,0,1,580,532.1537645443345) translate(260.60185185185185 24.38888888888889)"/><path d="M1460-135.67V-174a6 6 0 0 1 6-6h368a6 6 0 0 1 6 6v38.33z" stroke="#282c33" stroke-width="2" fill="#fff"/><path d="M1840-135.67v234a6 6 0 0 1-6 6h-368a6 6 0 0 1-6-6v-234z" stroke="#282c33" stroke-width="2" fill="none"/><use xlink:href="#g" transform="matrix(1,0,0,1,1459.9999999999998,-180) translate(158.00925925925927 27.38888888888889)"/><path d="M1780-110.48c16.57 0 30 13.43 30 30V51.67c0 16.56-13.43 30-30 30h-260c-16.57 0-30-13.44-30-30V-80.48c0-16.57 13.43-30 30-30z" stroke="#282c33" stroke-width="2" fill-opacity="0"/><path d="M830 663.7c0 4.75-49.25 8.6-110 8.6s-110-3.85-110-8.6v-68.66c0-4.74 49.25-8.58 110-8.58s110 3.84 110 8.58z" stroke="#282c33" stroke-width="2" fill="#fff"/><path d="M830 595.04c0 4.74-49.25 8.6-110 8.6s-110-3.86-110-8.6" stroke="#282c33" stroke-width="2" fill="none"/><use xlink:href="#h" transform="matrix(1,0,0,1,615,608.6259867665567) translate(8.274691358024697 23.243055555555557)"/><use xlink:href="#i" transform="matrix(1,0,0,1,615,608.6259867665567) translate(87.58333333333334 23.243055555555557)"/><use xlink:href="#j" transform="matrix(1,0,0,1,615,608.6259867665567) translate(128.9351851851852 23.243055555555557)"/><use xlink:href="#k" transform="matrix(1,0,0,1,615,608.6259867665567) translate(59.85993827160494 52.57638888888889)"/><path d="M1179.95 661.38c0 4.4-53.73 8-120 8-66.27 0-120-3.6-120-8v-64c0-4.42 53.73-8 120-8 66.27 0 120 3.58 120 8z" stroke="#282c33" stroke-width="2" fill="#fff"/><path d="M1179.95 597.38c0 4.4-53.73 8-120 8-66.27 0-120-3.6-120-8" stroke="#282c33" stroke-width="2" fill="none"/><use xlink:href="#d" transform="matrix(1,0,0,1,944.9512993626031,610.3759867665567) translate(44.314814814814824 33.05555555555556)"/><use xlink:href="#k" transform="matrix(1,0,0,1,944.9512993626031,610.3759867665567) translate(96.39506172839506 33.05555555555556)"/><path d="M768.67 358.3a6 6 0 0 1 6-6h228a6 6 0 0 1 6 6v48a6 6 0 0 1-6 6h-228a6 6 0 0 1-6-6z" fill="none"/><use xlink:href="#l" transform="matrix(1,0,0,1,768.6666666666665,352.2906799001099) translate(33.90123456790123 20.22222222222222)"/><use xlink:href="#m" transform="matrix(1,0,0,1,768.6666666666665,352.2906799001099) translate(84.0462962962963 49.55555555555556)"/><path d="M949.6 446.58V484a6 6 0 0 0 6 6h98.35a6 6 0 0 1 6 6v73.87" stroke="#3a414a" stroke-width="2" fill="none"/><path d="M950.58 446.6h-1.95v-1.02h1.95z" stroke="#3a414a" stroke-width=".05" fill="#3a414a"/><path d="M1059.95 585.14l-4.63-14.27h9.27z" stroke="#3a414a" stroke-width="2" fill="#3a414a"/><path d="M949.6 446.58V484a6 6 0 0 1-6 6H726a6 6 0 0 0-6 6v70.96" stroke="#3a414a" stroke-width="2" fill="none"/><path d="M950.58 446.6h-1.95v-1.02h1.95z" stroke="#3a414a" stroke-width=".05" fill="#3a414a"/><path d="M720 582.22l-4.63-14.26h9.26z" stroke="#3a414a" stroke-width="2" fill="#3a414a"/><path d="M1520 226a6 6 0 0 1 6-6h268a6 6 0 0 1 6 6v48a6 6 0 0 1-6 6h-268a6 6 0 0 1-6-6z" fill="none"/><use xlink:href="#n" transform="matrix(1,0,0,1,1520,220) translate(25.552469135802497 34.888888888888886)"/><use xlink:href="#o" transform="matrix(1,0,0,1,1520,220) translate(163.12037037037038 34.888888888888886)"/><use xlink:href="#p" transform="matrix(1,0,0,1,1520,220) translate(215.20061728395058 34.888888888888886)"/><path d="M1520 353.7a6 6 0 0 1 6-6h268a6 6 0 0 1 6 6v48a6 6 0 0 1-6 6h-268a6 6 0 0 1-6-6z" fill="none"/><use xlink:href="#q" transform="matrix(1,0,0,1,1520,347.7093200998901) translate(46.05864197530863 34.888888888888886)"/><use xlink:href="#r" transform="matrix(1,0,0,1,1520,347.7093200998901) translate(96.91666666666666 34.888888888888886)"/><use xlink:href="#s" transform="matrix(1,0,0,1,1520,347.7093200998901) translate(109.8179012345679 34.888888888888886)"/><use xlink:href="#p" transform="matrix(1,0,0,1,1520,347.7093200998901) translate(194.69444444444446 34.888888888888886)"/><path d="M1498 250h-222a6 6 0 0 0-6 6v108a6 6 0 0 1-6 6h-38a6 6 0 0 0-6 6v.3a6 6 0 0 1-6 6h-170.16" stroke="#3a414a" stroke-width="2" fill="none"/><path d="M1499 250.97h-1.03v-1.94h1.03z" stroke="#3a414a" stroke-width=".05" fill="#3a414a"/><path d="M1028.57 382.3l14.27-4.65v9.28z" stroke="#3a414a" stroke-width="2" fill="#3a414a"/><path d="M1498 382.3h-454.16" stroke="#3a414a" stroke-width="2" fill="none"/><path d="M1499 383.27h-1.03v-1.95h1.03z" stroke="#3a414a" stroke-width=".05" fill="#3a414a"/><path d="M1028.57 382.3l14.27-4.65v9.28z" stroke="#3a414a" stroke-width="2" fill="#3a414a"/><path d="M1498 250h-82a6 6 0 0 1-6-6V12.98a6 6 0 0 0-6-6h-48a6 6 0 0 0-6 6V14a6 6 0 0 1-6 6h-8a6 6 0 0 1-6-6v-.06a6 6 0 0 0-6-6h-125.5" stroke="#3a414a" stroke-width="2" fill="none"/><path d="M1499 250.97h-1.03v-1.94h1.03z" stroke="#3a414a" stroke-width=".05" fill="#3a414a"/><path d="M1183.24 7.94l14.26-4.63v9.28z" stroke="#3a414a" stroke-width="2" fill="#3a414a"/><path d="M720 584.46V496a6 6 0 0 1 6-6h217.6a6 6 0 0 0 6-6v-19.92" stroke="#3a414a" stroke-width="2" fill="none"/><path d="M720.98 585.48l-.98-.02h-.98v-1.03H721z" stroke="#3a414a" stroke-width=".05" fill="#3a414a"/><path d="M949.6 448.82l4.64 14.26h-9.27z" stroke="#3a414a" stroke-width="2" fill="#3a414a"/><path d="M600-14a6 6 0 0 1 6-6h228a6 6 0 0 1 6 6v48a6 6 0 0 1-6 6H606a6 6 0 0 1-6-6z" fill="none"/><use xlink:href="#t" transform="matrix(1,0,0,1,600,-20) translate(54.64506172839506 34.888888888888886)"/><use xlink:href="#u" transform="matrix(1,0,0,1,600,-20) translate(137.95987654320987 34.888888888888886)"/><path d="M940-14a6 6 0 0 1 6-6h228a6 6 0 0 1 6 6v48a6 6 0 0 1-6 6H946a6 6 0 0 1-6-6z" fill="none"/><use xlink:href="#q" transform="matrix(1,0,0,1,940,-20) translate(70.87345679012346 34.888888888888886)"/><use xlink:href="#u" transform="matrix(1,0,0,1,940,-20) translate(121.73148148148148 34.888888888888886)"/><path d="M600 107.67a6 6 0 0 1 6-6h228a6 6 0 0 1 6 6v48a6 6 0 0 1-6 6H606a6 6 0 0 1-6-6z" fill="none"/><use xlink:href="#v" transform="matrix(1,0,0,1,600,101.66666666666669) translate(34.987654320987644 34.888888888888886)"/><use xlink:href="#u" transform="matrix(1,0,0,1,600,101.66666666666669) translate(157.6172839506173 34.888888888888886)"/><path d="M940 107.67a6 6 0 0 1 6-6h228a6 6 0 0 1 6 6v48a6 6 0 0 1-6 6H946a6 6 0 0 1-6-6z" fill="none"/><use xlink:href="#w" transform="matrix(1,0,0,1,940,101.66666666666669) translate(70.26234567901236 34.888888888888886)"/><use xlink:href="#u" transform="matrix(1,0,0,1,940,101.66666666666669) translate(122.3425925925926 34.888888888888886)"/><path d="M890.1 318v-38.95a.05.05 0 0 0-.05-.05.05.05 0 0 1-.05-.05V16.38a6 6 0 0 1 6-6h25.5" stroke="#3a414a" stroke-width="2" fill="none"/><path d="M891.08 319h-1.95v-1.03h1.95z" stroke="#3a414a" stroke-width=".05" fill="#3a414a"/><path d="M936.76 10.38L922.5 15V5.75z" stroke="#3a414a" stroke-width="2" fill="#3a414a"/><path d="M1069.4 587.56V395.3a5.3 5.3 0 0 1 5.3-5.3 5.3 5.3 0 0 0 5.3-5.3v-9.4a5.3 5.3 0 0 0-5.3-5.3 5.3 5.3 0 0 1-5.3-5.3V201.17" stroke="#3a414a" stroke-width="2" fill="none"/><path d="M1070.38 588.58l-1.95-.04v-1h1.95z" stroke="#3a414a" stroke-width=".05" fill="#3a414a"/><path d="M1069.4 185.9l4.64 14.27h-9.27z" stroke="#3a414a" stroke-width="2" fill="#3a414a"/><path d="M683.5 585V203.7a.05.05 0 0 0-.04-.03.05.05 0 0 1-.05-.05v-2.45" stroke="#3a414a" stroke-width="2" fill="none"/><path d="M684.48 585.95l-1.96.1v-1.08h1.96z" stroke="#3a414a" stroke-width=".05" fill="#3a414a"/><path d="M683.4 185.9l4.64 14.27h-9.27z" stroke="#3a414a" stroke-width="2" fill="#3a414a"/><path d="M608 629.38h-33a6 6 0 0 1-6-6V12.88a6 6 0 0 1 6-6h6.5" stroke="#3a414a" stroke-width="2" fill="none"/><path d="M609 630.35h-1.02v-1.95H609z" stroke="#3a414a" stroke-width=".05" fill="#3a414a"/><path d="M596.76 6.9l-14.26 4.63V2.25z" stroke="#3a414a" stroke-width="2" fill="#3a414a"/><path d="M1059.95 671.38V694a6 6 0 0 1-6 6H566a6 6 0 0 1-6-6V137.15a6 6 0 0 1 6-6h15.5" stroke="#3a414a" stroke-width="2" fill="none"/><path d="M1059.95 670.38h.98v1.02h-1.95v-1.04z" stroke="#3a414a" stroke-width=".05" fill="#3a414a"/><path d="M596.76 131.15l-14.26 4.64v-9.28z" stroke="#3a414a" stroke-width="2" fill="#3a414a"/><path d="M700.8 584.7V296a6 6 0 0 1 6-6H884a6 6 0 0 0 6-6V16a6 6 0 0 1 6-6h24.5" stroke="#3a414a" stroke-width="2" fill="none"/><path d="M701.76 585.68l-1.94.03v-1.03h1.94z" stroke="#3a414a" stroke-width=".05" fill="#3a414a"/><path d="M935.76 10l-14.26 4.63V5.37z" stroke="#3a414a" stroke-width="2" fill="#3a414a"/><path d="M1060 466a6 6 0 0 1 6-6h128a6 6 0 0 1 6 6v20.3a6 6 0 0 1-6 6h-128a6 6 0 0 1-6-6z" fill="none"/><use xlink:href="#x" transform="matrix(1,0,0,1,1060,460) translate(16.117283950617313 19.61111111111111)"/><use xlink:href="#y" transform="matrix(1,0,0,1,1060,460) translate(68.31481481481481 19.61111111111111)"/><use xlink:href="#z" transform="matrix(1,0,0,1,1060,460) translate(98.04320987654319 19.61111111111111)"/><path d="M1280 253.7a6 6 0 0 1 6-6h160.17a6 6 0 0 1 6 6v28a6 6 0 0 1-6 6H1286a6 6 0 0 1-6-6z" fill="none"/><use xlink:href="#A" transform="matrix(1,0,0,1,1280,247.70932009988996) translate(1.1820987654321584 23.11111111111111)"/><use xlink:href="#B" transform="matrix(1,0,0,1,1280,247.70932009988996) translate(55.021604938271636 23.11111111111111)"/><use xlink:href="#C" transform="matrix(1,0,0,1,1280,247.70932009988996) translate(142.56481481481478 23.11111111111111)"/><path d="M1259.1 386a6 6 0 0 1 6-6h181.07a6 6 0 0 1 6 6v28a6 6 0 0 1-6 6H1265.1a6 6 0 0 1-6-6z" fill="none"/><use xlink:href="#D" transform="matrix(1,0,0,1,1259.0882960729248,380) translate(3.7314814814815236 23.11111111111111)"/><use xlink:href="#E" transform="matrix(1,0,0,1,1259.0882960729248,380) translate(50.700617283950635 23.11111111111111)"/><use xlink:href="#F" transform="matrix(1,0,0,1,1259.0882960729248,380) translate(87.42901234567901 23.11111111111111)"/><use xlink:href="#E" transform="matrix(1,0,0,1,1259.0882960729248,380) translate(103.41666666666666 23.11111111111111)"/><use xlink:href="#G" transform="matrix(1,0,0,1,1259.0882960729248,380) translate(140.14506172839504 23.11111111111111)"/><path d="M744.33 466a6 6 0 0 1 6-6H934a6 6 0 0 1 6 6v25.32a6 6 0 0 1-6 6H750.33a6 6 0 0 1-6-6z" fill="none"/><use xlink:href="#H" transform="matrix(1,0,0,1,744.3333333333333,460) translate(0.15123456790128387 22.11111111111111)"/><use xlink:href="#I" transform="matrix(1,0,0,1,744.3333333333333,460) translate(35.92901234567904 22.11111111111111)"/><use xlink:href="#J" transform="matrix(1,0,0,1,744.3333333333333,460) translate(80.34876543209877 22.11111111111111)"/><use xlink:href="#K" transform="matrix(1,0,0,1,744.3333333333333,460) translate(88.55864197530865 22.11111111111111)"/><use xlink:href="#L" transform="matrix(1,0,0,1,744.3333333333333,460) translate(121.7006172839506 22.11111111111111)"/><path d="M884.33 286a6 6 0 0 1 6-6h128a6 6 0 0 1 6 6v20.3a6 6 0 0 1-6 6h-128a6 6 0 0 1-6-6z" fill="none"/><g><use xlink:href="#M" transform="matrix(1,0,0,1,884.3333333333333,280) translate(45.84567901234569 12.444444444444441)"/><use xlink:href="#N" transform="matrix(1,0,0,1,884.3333333333333,280) translate(19.098765432098787 31.1111111111111)"/></g><path d="M720 266a6 6 0 0 1 6-6h141.86a6 6 0 0 1 6 6v20.3a6 6 0 0 1-6 6H726a6 6 0 0 1-6-6z" fill="none"/><g><use xlink:href="#O" transform="matrix(1,0,0,1,720,260) translate(1.1018518518518903 19.61111111111111)"/><use xlink:href="#P" transform="matrix(1,0,0,1,720,260) translate(53.299382716049394 19.61111111111111)"/><use xlink:href="#Q" transform="matrix(1,0,0,1,720,260) translate(97.71913580246913 19.61111111111111)"/></g><path d="M800 706a6 6 0 0 1 6-6h188a6 6 0 0 1 6 6v20.3a6 6 0 0 1-6 6H806a6 6 0 0 1-6-6z" fill="none"/><g><use xlink:href="#x" transform="matrix(1,0,0,1,800,700) translate(4.398148148148195 19.61111111111111)"/><use xlink:href="#R" transform="matrix(1,0,0,1,800,700) translate(56.5956790123457 19.61111111111111)"/><use xlink:href="#S" transform="matrix(1,0,0,1,800,700) translate(127.84876543209874 19.61111111111111)"/><use xlink:href="#T" transform="matrix(1,0,0,1,800,700) translate(154.16358024691357 19.61111111111111)"/></g><g><path d="M573.7 515.42a6 6 0 0 1-6-6v-128a6 6 0 0 1 6-6H594a6 6 0 0 1 6 6v128a6 6 0 0 1-6 6z" fill="none"/></g><g><use xlink:href="#x" transform="matrix(6.123233995736766e-17,-1,1,6.123233995736766e-17,567.70932009989,515.4186401997803) translate(8.771604938271636 19.61111111111111)"/><use xlink:href="#I" transform="matrix(6.123233995736766e-17,-1,1,6.123233995736766e-17,567.70932009989,515.4186401997803) translate(60.96913580246914 19.61111111111111)"/><use xlink:href="#z" transform="matrix(6.123233995736766e-17,-1,1,6.123233995736766e-17,567.70932009989,515.4186401997803) translate(105.38888888888887 19.61111111111111)"/></g><g><path d="M662.02 440a6 6 0 0 1-6-6V306a6 6 0 0 1 6-6h20.3a6 6 0 0 1 6 6v128a6 6 0 0 1-6 6z" fill="none"/></g><g><use xlink:href="#x" transform="matrix(6.123233995736766e-17,-1,1,6.123233995736766e-17,656.0213267166116,439.9999999999999) translate(8.771604938271636 19.61111111111111)"/><use xlink:href="#I" transform="matrix(6.123233995736766e-17,-1,1,6.123233995736766e-17,656.0213267166116,439.9999999999999) translate(60.96913580246914 19.61111111111111)"/><use xlink:href="#z" transform="matrix(6.123233995736766e-17,-1,1,6.123233995736766e-17,656.0213267166116,439.9999999999999) translate(105.38888888888887 19.61111111111111)"/></g><path d="M1490-42.33a6 6 0 0 1 6-6h308a6 6 0 0 1 6 6v48a6 6 0 0 1-6 6h-308a6 6 0 0 1-6-6z" fill="none"/><g><use xlink:href="#U" transform="matrix(1,0,0,1,1490,-48.333333333333314) translate(137.01543209876544 34.888888888888886)"/></g><path d="M1489-14.65h-143a6 6 0 0 0-6 6V50.1a6 6 0 0 1-6 6h-90.16" stroke="#3a414a" stroke-width="2" fill="none"/><path d="M1490-13.67h-1.03v-1.95h1.03z" stroke="#3a414a" stroke-width=".05" fill="#3a414a"/><path d="M1228.57 56.1l14.27-4.64v9.27z" stroke="#3a414a" stroke-width="2" fill="#3a414a"/><path d="M1320-42.33a6 6 0 0 1 6-6h135.83a6 6 0 0 1 6 6v28a6 6 0 0 1-6 6H1326a6 6 0 0 1-6-6z" fill="none"/><g><use xlink:href="#V" transform="matrix(1,0,0,1,1319.9999999999998,-48.333333333333314) translate(23.833333333333357 23.11111111111111)"/><use xlink:href="#W" transform="matrix(1,0,0,1,1319.9999999999998,-48.333333333333314) translate(56.97530864197532 23.11111111111111)"/></g><path d="M842 10h22a6 6 0 0 1 6 6v109.53a6 6 0 0 1-6 6h-4.5" stroke="#3a414a" stroke-width="2" fill="none"/><path d="M842.03 10.97H841V9.03h1.03z" stroke="#3a414a" stroke-width=".05" fill="#3a414a"/><path d="M844.24 131.53l14.26-4.64v9.26z" stroke="#3a414a" stroke-width="2" fill="#3a414a"/><g><path d="M847.56 145.6a6 6 0 0 1-6-6v-128a6 6 0 0 1 6-6h20.3a6 6 0 0 1 6 6v128a6 6 0 0 1-6 6z" fill="none"/></g><g><use xlink:href="#X" transform="matrix(6.123233995736766e-17,-1,1,6.123233995736766e-17,841.5639801498351,145.59480397491222) translate(43.728395061728406 19.61111111111111)"/></g><path d="M1498 250h-413a5 5 0 0 1-5-5 5 5 0 0 0-5-5h-10a5 5 0 0 0-5 5 5 5 0 0 1-5 5H905a5 5 0 0 1-5-5 5 5 0 0 0-5-5h-10a5 5 0 0 0-5 5 5 5 0 0 1-5 5H726a6 6 0 0 1-6-6v-42.83" stroke="#3a414a" stroke-width="2" fill="none"/><path d="M1499 250.97h-1.03v-1.94h1.03z" stroke="#3a414a" stroke-width=".05" fill="#3a414a"/><path d="M720 185.9l4.63 14.27h-9.26z" stroke="#3a414a" stroke-width="2" fill="#3a414a"/><defs><path fill="#3a414a" d="M81-9v9H4v-9l26-5 81-224h33l83 224 30 5v9h-99v-9l31-5-23-68H73L49-14zm38-203L78-98h82" id="Y"/><path fill="#3a414a" d="M166-85c3 67-44 102-111 85l1 64 29 4v9H6v-9l21-4v-217c-7-3-22 1-19-12h46l1 9c11-8 26-14 45-14 47 2 64 36 66 85zM56-13c53 14 83-14 78-72 7-53-33-79-78-60v132" id="Z"/><path fill="#3a414a" d="M65-12l28 4v8H7v-8l28-4v-226l-28-4v-8h58v238" id="aa"/><path fill="#3a414a" d="M47-200c-23 0-25-39 0-38 13 0 18 7 20 19-1 11-8 19-20 19zM65-12l28 4v8H8v-8l28-4v-141l-24-4v-8h53v153" id="ab"/><path fill="#3a414a" d="M45-84c0 64 52 80 104 63 1 25-30 25-55 25-56 0-80-32-80-88 0-76 62-98 131-80v46h-10c-5-15-4-31-23-35-47-10-67 21-67 69" id="ac"/><path fill="#3a414a" d="M32-163c41-10 102-14 102 39v112c8 3 24-2 21 12h-45l-4-17C83 13 3 13 13-46c-2-50 45-50 92-51 4-36-5-70-42-56-6 2-12 4-16 6-4 7 0 23-15 20v-36zM42-47c0 41 41 33 63 22v-59c-34 1-63-1-63 37" id="ad"/><path fill="#3a414a" d="M54-38c-1 25 24 26 44 20v12C71 10 25 9 25-35v-115H4c-2-14 14-10 21-15l18-38h11v38h38v15H54v112" id="ae"/><path fill="#3a414a" d="M90-170c52 0 76 32 76 87 0 54-24 87-77 87-51 0-75-34-75-87 0-54 24-87 76-87zM89-10c39 0 46-35 46-73 0-39-7-73-46-73-39 1-44 34-44 73s6 72 44 73" id="af"/><path fill="#3a414a" d="M125-118c4-37-41-34-68-26v132l23 4v8H8C5-13 21-9 28-12v-141c-7-3-23 1-20-12h47l2 13c31-23 98-29 98 31v109c7 3 23-1 20 12h-72v-8l22-4v-106" id="ag"/><g id="a"><use transform="matrix(0.06790123456790123,0,0,0.06790123456790123,0,0)" xlink:href="#Y"/><use transform="matrix(0.06790123456790123,0,0,0.06790123456790123,17.586419753086417,0)" xlink:href="#Z"/><use transform="matrix(0.06790123456790123,0,0,0.06790123456790123,29.80864197530864,0)" xlink:href="#Z"/><use transform="matrix(0.06790123456790123,0,0,0.06790123456790123,42.03086419753086,0)" xlink:href="#aa"/><use transform="matrix(0.06790123456790123,0,0,0.06790123456790123,48.82098765432099,0)" xlink:href="#ab"/><use transform="matrix(0.06790123456790123,0,0,0.06790123456790123,55.611111111111114,0)" xlink:href="#ac"/><use transform="matrix(0.06790123456790123,0,0,0.06790123456790123,66.4074074074074,0)" xlink:href="#ad"/><use transform="matrix(0.06790123456790123,0,0,0.06790123456790123,77.2037037037037,0)" xlink:href="#ae"/><use transform="matrix(0.06790123456790123,0,0,0.06790123456790123,83.99382716049382,0)" xlink:href="#ab"/><use transform="matrix(0.06790123456790123,0,0,0.06790123456790123,90.78395061728395,0)" xlink:href="#af"/><use transform="matrix(0.06790123456790123,0,0,0.06790123456790123,103.00617283950618,0)" xlink:href="#ag"/></g><path fill="#3a414a" d="M10-9l31-5v-208l-31-4v-10h177v57h-11l-6-38c-28-4-63-3-95-3v92h63l6-28h11v73h-11l-6-29H75v96l105-3 10-43h12l-3 62H10v-9" id="ah"/><path fill="#3a414a" d="M156-12c7 3 23-1 20 12h-75v-8l22-4-38-58-45 58 23 4v8H3v-8l19-3 55-71-48-71c-7-3-23 1-20-12h75v8l-22 4 32 48 37-48-23-4v-8h59v8l-19 3-46 60" id="ai"/><path fill="#3a414a" d="M84-170c49 0 66 33 63 87H46c-8 60 38 80 95 63v10C128-2 108 4 88 4 34 4 14-29 14-84c-1-54 22-86 70-86zm33 73c12-57-57-82-69-24-1 7-2 15-2 24h71" id="aj"/><path fill="#3a414a" d="M57-145c16-10 35-24 60-25v45c-19 1-8-30-40-17l-20 6v124l29 4v8H7v-8l21-4v-141c-8-3-24 2-21-12h48" id="ak"/><g id="b"><use transform="matrix(0.06790123456790123,0,0,0.06790123456790123,0,0)" xlink:href="#ah"/><use transform="matrix(0.06790123456790123,0,0,0.06790123456790123,14.87037037037037,0)" xlink:href="#ai"/><use transform="matrix(0.06790123456790123,0,0,0.06790123456790123,27.09259259259259,0)" xlink:href="#ae"/><use transform="matrix(0.06790123456790123,0,0,0.06790123456790123,33.882716049382715,0)" xlink:href="#aj"/><use transform="matrix(0.06790123456790123,0,0,0.06790123456790123,44.67901234567901,0)" xlink:href="#ak"/><use transform="matrix(0.06790123456790123,0,0,0.06790123456790123,52.75925925925926,0)" xlink:href="#ag"/><use transform="matrix(0.06790123456790123,0,0,0.06790123456790123,64.98148148148148,0)" xlink:href="#ad"/><use transform="matrix(0.06790123456790123,0,0,0.06790123456790123,75.77777777777777,0)" xlink:href="#aa"/></g><path fill="#3a414a" d="M75-108c48 3 76-12 76-58s-28-57-76-54v112zm111-58c-1 60-46 78-111 74v78l37 5v9H13v-9l28-5v-208l-31-4v-10c81 1 178-14 176 70" id="al"/><path fill="#3a414a" d="M77-14l30 5v9H13v-9l30-5v-208l-30-4v-10h94v10l-30 4v208" id="am"/><g id="c"><use transform="matrix(0.06790123456790123,0,0,0.06790123456790123,0,0)" xlink:href="#Y"/><use transform="matrix(0.06790123456790123,0,0,0.06790123456790123,17.586419753086417,0)" xlink:href="#al"/><use transform="matrix(0.06790123456790123,0,0,0.06790123456790123,31.166666666666664,0)" xlink:href="#am"/></g><path fill="#3a414a" d="M134-16c44-1 70-21 70-64v-142l-32-4v-10h80v10l-30 4v141c0 57-33 84-91 85-58 0-93-26-93-82v-144l-30-4v-10h94v10l-30 4c7 82-31 209 62 206" id="an"/><path fill="#3a414a" d="M41-130c7 48 86 23 86 84 0 56-69 57-112 41v-40c20 0 9 29 31 31 35 19 77-26 41-50-27-18-72-13-72-59 0-50 58-52 100-41v36c-19 1-8-25-28-25-21-7-50-1-46 23" id="ao"/><g id="d"><use transform="matrix(0.06790123456790123,0,0,0.06790123456790123,0,0)" xlink:href="#an"/><use transform="matrix(0.06790123456790123,0,0,0.06790123456790123,17.586419753086417,0)" xlink:href="#ao"/><use transform="matrix(0.06790123456790123,0,0,0.06790123456790123,27.092592592592588,0)" xlink:href="#aj"/><use transform="matrix(0.06790123456790123,0,0,0.06790123456790123,37.888888888888886,0)" xlink:href="#ak"/></g><path fill="#3a414a" d="M103-236c-39-15-35 32-34 71h44v15H69v136l35 6v8H15v-8l25-6v-136H11v-9l29-7c-6-59 23-100 80-84v36c-15 2-12-14-17-22" id="ap"/><g id="e"><use transform="matrix(0.06790123456790123,0,0,0.06790123456790123,0,0)" xlink:href="#am"/><use transform="matrix(0.06790123456790123,0,0,0.06790123456790123,8.080246913580247,0)" xlink:href="#ag"/><use transform="matrix(0.06790123456790123,0,0,0.06790123456790123,20.30246913580247,0)" xlink:href="#ae"/><use transform="matrix(0.06790123456790123,0,0,0.06790123456790123,27.09259259259259,0)" xlink:href="#aj"/><use transform="matrix(0.06790123456790123,0,0,0.06790123456790123,37.888888888888886,0)" xlink:href="#ak"/><use transform="matrix(0.06790123456790123,0,0,0.06790123456790123,45.96913580246913,0)" xlink:href="#ap"/><use transform="matrix(0.06790123456790123,0,0,0.06790123456790123,54.04938271604938,0)" xlink:href="#ad"/><use transform="matrix(0.06790123456790123,0,0,0.06790123456790123,64.84567901234567,0)" xlink:href="#ac"/><use transform="matrix(0.06790123456790123,0,0,0.06790123456790123,75.64197530864196,0)" xlink:href="#aj"/></g><path fill="#3a414a" d="M75-17c87 13 134-18 134-103 0-78-51-106-134-100v203zm171-102C246 5 139 7 10 0v-9l31-5v-208l-31-4v-10h107c82 0 129 35 129 117" id="aq"/><path fill="#3a414a" d="M53-14c58 12 82-15 82-73 0-52-35-77-82-58v131zM89 4C64 4 42-2 24-9v-229l-24-4v-8h53l-1 94c48-33 114-4 114 69 0 57-23 91-77 91" id="ar"/><g id="f"><use transform="matrix(0.06790123456790123,0,0,0.06790123456790123,0,0)" xlink:href="#aq"/><use transform="matrix(0.06790123456790123,0,0,0.06790123456790123,17.586419753086417,0)" xlink:href="#ad"/><use transform="matrix(0.06790123456790123,0,0,0.06790123456790123,28.382716049382715,0)" xlink:href="#ae"/><use transform="matrix(0.06790123456790123,0,0,0.06790123456790123,35.172839506172835,0)" xlink:href="#ad"/><use transform="matrix(0.06790123456790123,0,0,0.06790123456790123,45.96913580246913,0)" xlink:href="#ar"/><use transform="matrix(0.06790123456790123,0,0,0.06790123456790123,58.191358024691354,0)" xlink:href="#ad"/><use transform="matrix(0.06790123456790123,0,0,0.06790123456790123,68.98765432098764,0)" xlink:href="#ao"/><use transform="matrix(0.06790123456790123,0,0,0.06790123456790123,78.49382716049382,0)" xlink:href="#aj"/><use transform="matrix(0.06790123456790123,0,0,0.06790123456790123,89.29012345679011,0)" xlink:href="#ao"/></g><g id="g"><use transform="matrix(0.06790123456790123,0,0,0.06790123456790123,0,0)" xlink:href="#Y"/><use transform="matrix(0.06790123456790123,0,0,0.06790123456790123,17.586419753086417,0)" xlink:href="#ac"/><use transform="matrix(0.06790123456790123,0,0,0.06790123456790123,28.382716049382715,0)" xlink:href="#ae"/><use transform="matrix(0.06790123456790123,0,0,0.06790123456790123,35.172839506172835,0)" xlink:href="#af"/><use transform="matrix(0.06790123456790123,0,0,0.06790123456790123,47.395061728395056,0)" xlink:href="#ak"/><use transform="matrix(0.06790123456790123,0,0,0.06790123456790123,55.4753086419753,0)" xlink:href="#ao"/></g><path fill="#3a414a" d="M178-68c0 79-95 82-154 59v-54h12c1 35 22 52 60 52 50 0 69-58 33-82-39-24-105-21-105-85 0-67 86-66 142-53v49h-12l-6-29c-31-27-121-7-89 42 28 43 119 24 119 101" id="as"/><path fill="#3a414a" d="M126-119c3-38-42-31-69-25v132l23 4v8H7v-8l21-4v-226l-24-4v-8h53l-1 98c31-22 99-31 99 31v109c7 3 23-1 20 12h-71v-8l22-4v-107" id="at"/><g id="h"><use transform="matrix(0.06790123456790123,0,0,0.06790123456790123,0,0)" xlink:href="#as"/><use transform="matrix(0.06790123456790123,0,0,0.06790123456790123,13.580246913580247,0)" xlink:href="#at"/><use transform="matrix(0.06790123456790123,0,0,0.06790123456790123,25.80246913580247,0)" xlink:href="#ak"/><use transform="matrix(0.06790123456790123,0,0,0.06790123456790123,33.882716049382715,0)" xlink:href="#ab"/><use transform="matrix(0.06790123456790123,0,0,0.06790123456790123,40.672839506172835,0)" xlink:href="#ag"/><use transform="matrix(0.06790123456790123,0,0,0.06790123456790123,52.895061728395056,0)" xlink:href="#aj"/><use transform="matrix(0.06790123456790123,0,0,0.06790123456790123,63.691358024691354,0)" xlink:href="#ao"/></g><path fill="#3a414a" d="M13-81c0-71 46-101 114-85l-1-72-28-4v-8h57v238c8 3 24-2 21 12h-47l-2-12C80 23 13-1 13-81zm77-74c-37 1-44 33-45 74 0 38 9 66 45 66 14 0 27-3 36-7v-130c-10-1-24-3-36-3" id="au"/><g id="i"><use transform="matrix(0.06790123456790123,0,0,0.06790123456790123,0,0)" xlink:href="#ad"/><use transform="matrix(0.06790123456790123,0,0,0.06790123456790123,10.796296296296296,0)" xlink:href="#ag"/><use transform="matrix(0.06790123456790123,0,0,0.06790123456790123,23.018518518518515,0)" xlink:href="#au"/></g><path fill="#3a414a" d="M55 0v-9l38-5v-207c-22 1-53 0-70 4l-5 37H7v-56h207v56h-12l-5-37-70-3v206l37 5v9H55" id="av"/><path fill="#3a414a" d="M126-118c4-37-42-32-68-25v131l24 4v8H8C5-13 21-9 28-12v-141c-7-3-23 1-20-12h48l1 13c22-15 77-30 92 2 32-22 104-36 104 29v109c8 3 24-2 21 12h-75v-8l25-4v-106c3-39-45-31-72-24 7 37 1 88 3 130l25 4v8h-78v-8l24-4v-106" id="aw"/><g id="j"><use transform="matrix(0.06790123456790123,0,0,0.06790123456790123,0,0)" xlink:href="#av"/><use transform="matrix(0.06790123456790123,0,0,0.06790123456790123,13.172839506172838,0)" xlink:href="#aj"/><use transform="matrix(0.06790123456790123,0,0,0.06790123456790123,23.969135802469136,0)" xlink:href="#aw"/><use transform="matrix(0.06790123456790123,0,0,0.06790123456790123,42.98148148148148,0)" xlink:href="#Z"/><use transform="matrix(0.06790123456790123,0,0,0.06790123456790123,55.2037037037037,0)" xlink:href="#aa"/><use transform="matrix(0.06790123456790123,0,0,0.06790123456790123,61.99382716049382,0)" xlink:href="#aj"/></g><g id="k"><use transform="matrix(0.06790123456790123,0,0,0.06790123456790123,0,0)" xlink:href="#aq"/><use transform="matrix(0.06790123456790123,0,0,0.06790123456790123,17.586419753086417,0)" xlink:href="#ad"/><use transform="matrix(0.06790123456790123,0,0,0.06790123456790123,28.382716049382715,0)" xlink:href="#ae"/><use transform="matrix(0.06790123456790123,0,0,0.06790123456790123,35.172839506172835,0)" xlink:href="#ad"/><use transform="matrix(0.06790123456790123,0,0,0.06790123456790123,45.96913580246913,0)" xlink:href="#ar"/><use transform="matrix(0.06790123456790123,0,0,0.06790123456790123,58.191358024691354,0)" xlink:href="#ad"/><use transform="matrix(0.06790123456790123,0,0,0.06790123456790123,68.98765432098764,0)" xlink:href="#ao"/><use transform="matrix(0.06790123456790123,0,0,0.06790123456790123,78.49382716049382,0)" xlink:href="#aj"/></g><path fill="#3a414a" d="M199-173c-1 36-21 56-49 65l64 94 26 5v9h-57l-66-103H75v89l35 5v9H13v-9l28-5v-208l-31-4v-10c80 4 190-20 189 63zM75-119c50 2 89-1 89-51 0-49-39-52-89-50v101" id="ax"/><g id="l"><use transform="matrix(0.06790123456790123,0,0,0.06790123456790123,0,0)" xlink:href="#ax"/><use transform="matrix(0.06790123456790123,0,0,0.06790123456790123,16.296296296296294,0)" xlink:href="#aj"/><use transform="matrix(0.06790123456790123,0,0,0.06790123456790123,27.092592592592588,0)" xlink:href="#ac"/><use transform="matrix(0.06790123456790123,0,0,0.06790123456790123,37.888888888888886,0)" xlink:href="#af"/><use transform="matrix(0.06790123456790123,0,0,0.06790123456790123,50.11111111111111,0)" xlink:href="#aw"/><use transform="matrix(0.06790123456790123,0,0,0.06790123456790123,69.12345679012346,0)" xlink:href="#aw"/><use transform="matrix(0.06790123456790123,0,0,0.06790123456790123,88.1358024691358,0)" xlink:href="#aj"/><use transform="matrix(0.06790123456790123,0,0,0.06790123456790123,98.93209876543209,0)" xlink:href="#ag"/><use transform="matrix(0.06790123456790123,0,0,0.06790123456790123,111.1543209876543,0)" xlink:href="#au"/><use transform="matrix(0.06790123456790123,0,0,0.06790123456790123,123.37654320987653,0)" xlink:href="#ad"/><use transform="matrix(0.06790123456790123,0,0,0.06790123456790123,134.17283950617283,0)" xlink:href="#ae"/><use transform="matrix(0.06790123456790123,0,0,0.06790123456790123,140.96296296296296,0)" xlink:href="#ab"/><use transform="matrix(0.06790123456790123,0,0,0.06790123456790123,147.7530864197531,0)" xlink:href="#af"/><use transform="matrix(0.06790123456790123,0,0,0.06790123456790123,159.97530864197532,0)" xlink:href="#ag"/></g><path fill="#3a414a" d="M161-154L85 37C75 66 49 86 8 75V39c18-2 6 24 29 21 30-4 38-32 47-58L21-153c-7-3-20 0-17-12h77v8l-26 4 45 116 43-116-26-4v-8h62v8" id="ay"/><g id="m"><use transform="matrix(0.06790123456790123,0,0,0.06790123456790123,0,0)" xlink:href="#as"/><use transform="matrix(0.06790123456790123,0,0,0.06790123456790123,13.580246913580247,0)" xlink:href="#ay"/><use transform="matrix(0.06790123456790123,0,0,0.06790123456790123,25.80246913580247,0)" xlink:href="#ao"/><use transform="matrix(0.06790123456790123,0,0,0.06790123456790123,35.30864197530864,0)" xlink:href="#ae"/><use transform="matrix(0.06790123456790123,0,0,0.06790123456790123,42.09876543209876,0)" xlink:href="#aj"/><use transform="matrix(0.06790123456790123,0,0,0.06790123456790123,52.895061728395056,0)" xlink:href="#aw"/></g><path fill="#3a414a" d="M52-115c0 93 80 130 150 87l7-35h11l-1 55c-23 7-52 12-83 12C60 4 19-37 15-115c-5-113 97-141 201-114l1 51h-12l-5-30c-15-9-39-16-62-16-66 0-86 41-86 109" id="az"/><path fill="#3a414a" d="M240-154L185 4h-14l-41-109L90 4H77L20-153c-7-3-23 1-20-12h79v8l-27 4L91-41l40-108h14l40 109 38-113-28-4v-8h63v8" id="aA"/><g id="n"><use transform="matrix(0.06790123456790123,0,0,0.06790123456790123,0,0)" xlink:href="#az"/><use transform="matrix(0.06790123456790123,0,0,0.06790123456790123,16.296296296296294,0)" xlink:href="#ak"/><use transform="matrix(0.06790123456790123,0,0,0.06790123456790123,24.37654320987654,0)" xlink:href="#af"/><use transform="matrix(0.06790123456790123,0,0,0.06790123456790123,36.59876543209876,0)" xlink:href="#aA"/><use transform="matrix(0.06790123456790123,0,0,0.06790123456790123,54.185185185185176,0)" xlink:href="#au"/><use transform="matrix(0.06790123456790123,0,0,0.06790123456790123,66.40740740740739,0)" xlink:href="#aj"/><use transform="matrix(0.06790123456790123,0,0,0.06790123456790123,77.20370370370368,0)" xlink:href="#au"/><use transform="matrix(0.06790123456790123,0,0,0.06790123456790123,89.4259259259259,0)" xlink:href="#ag"/><use transform="matrix(0.06790123456790123,0,0,0.06790123456790123,101.64814814814812,0)" xlink:href="#aj"/><use transform="matrix(0.06790123456790123,0,0,0.06790123456790123,112.4444444444444,0)" xlink:href="#ao"/><use transform="matrix(0.06790123456790123,0,0,0.06790123456790123,121.95061728395059,0)" xlink:href="#ao"/></g><g id="o"><use transform="matrix(0.06790123456790123,0,0,0.06790123456790123,0,0)" xlink:href="#aq"/><use transform="matrix(0.06790123456790123,0,0,0.06790123456790123,17.586419753086417,0)" xlink:href="#ad"/><use transform="matrix(0.06790123456790123,0,0,0.06790123456790123,28.382716049382715,0)" xlink:href="#ae"/><use transform="matrix(0.06790123456790123,0,0,0.06790123456790123,35.172839506172835,0)" xlink:href="#ad"/></g><g id="p"><use transform="matrix(0.06790123456790123,0,0,0.06790123456790123,0,0)" xlink:href="#Y"/><use transform="matrix(0.06790123456790123,0,0,0.06790123456790123,17.586419753086417,0)" xlink:href="#al"/><use transform="matrix(0.06790123456790123,0,0,0.06790123456790123,31.166666666666664,0)" xlink:href="#am"/></g><path fill="#3a414a" d="M152 0h-7L59-203v189l32 5v9H10v-9l31-5v-208l-31-4v-10h72l76 180 84-180h68v10l-31 4v208l31 5v9h-96v-9l32-5v-189" id="aB"/><g id="q"><use transform="matrix(0.06790123456790123,0,0,0.06790123456790123,0,0)" xlink:href="#aB"/><use transform="matrix(0.06790123456790123,0,0,0.06790123456790123,21.728395061728392,0)" xlink:href="#ad"/><use transform="matrix(0.06790123456790123,0,0,0.06790123456790123,32.52469135802469,0)" xlink:href="#Z"/></g><path fill="#3a414a" d="M18 4H0l83-241h17" id="aC"/><use transform="matrix(0.06790123456790123,0,0,0.06790123456790123,0,0)" xlink:href="#aC" id="r"/><path fill="#3a414a" d="M124-13C89 8 26 15 26-45v-108c-8-3-24 2-21-12h50v118c-3 37 42 32 69 25v-131l-25-4v-8h54v153c8 3 24-2 21 12h-48" id="aD"/><path fill="#3a414a" d="M141-152c28 39 5 97-54 97-9 0-20-2-27-3L49-35c29 22 130-14 124 52-4 45-38 57-88 61C21 83-8 26 45-2 33-6 22-15 21-31l28-31c-19-9-28-26-28-51-2-51 53-65 100-52l38-20 7 8zM85 64c35 0 61-11 61-42 0-35-57-17-89-21-9 8-16 19-17 34 0 25 19 29 45 29zM52-113c1 26 7 46 35 44 28-1 34-16 35-44 0-26-6-43-34-43s-36 17-36 43" id="aE"/><g id="s"><use transform="matrix(0.06790123456790123,0,0,0.06790123456790123,0,0)" xlink:href="#ax"/><use transform="matrix(0.06790123456790123,0,0,0.06790123456790123,16.296296296296294,0)" xlink:href="#af"/><use transform="matrix(0.06790123456790123,0,0,0.06790123456790123,28.518518518518515,0)" xlink:href="#aD"/><use transform="matrix(0.06790123456790123,0,0,0.06790123456790123,40.74074074074073,0)" xlink:href="#ae"/><use transform="matrix(0.06790123456790123,0,0,0.06790123456790123,47.53086419753086,0)" xlink:href="#ab"/><use transform="matrix(0.06790123456790123,0,0,0.06790123456790123,54.32098765432099,0)" xlink:href="#ag"/><use transform="matrix(0.06790123456790123,0,0,0.06790123456790123,66.54320987654322,0)" xlink:href="#aE"/></g><g id="t"><use transform="matrix(0.06790123456790123,0,0,0.06790123456790123,0,0)" xlink:href="#ah"/><use transform="matrix(0.06790123456790123,0,0,0.06790123456790123,14.87037037037037,0)" xlink:href="#ai"/><use transform="matrix(0.06790123456790123,0,0,0.06790123456790123,27.09259259259259,0)" xlink:href="#Z"/><use transform="matrix(0.06790123456790123,0,0,0.06790123456790123,39.31481481481481,0)" xlink:href="#aa"/><use transform="matrix(0.06790123456790123,0,0,0.06790123456790123,46.10493827160494,0)" xlink:href="#af"/><use transform="matrix(0.06790123456790123,0,0,0.06790123456790123,58.32716049382716,0)" xlink:href="#ak"/><use transform="matrix(0.06790123456790123,0,0,0.06790123456790123,66.4074074074074,0)" xlink:href="#aj"/></g><g id="u"><use transform="matrix(0.06790123456790123,0,0,0.06790123456790123,0,0)" xlink:href="#al"/><use transform="matrix(0.06790123456790123,0,0,0.06790123456790123,13.580246913580247,0)" xlink:href="#ad"/><use transform="matrix(0.06790123456790123,0,0,0.06790123456790123,24.376543209876544,0)" xlink:href="#aE"/><use transform="matrix(0.06790123456790123,0,0,0.06790123456790123,36.598765432098766,0)" xlink:href="#aj"/></g><g id="v"><use transform="matrix(0.06790123456790123,0,0,0.06790123456790123,0,0)" xlink:href="#am"/><use transform="matrix(0.06790123456790123,0,0,0.06790123456790123,8.080246913580247,0)" xlink:href="#ag"/><use transform="matrix(0.06790123456790123,0,0,0.06790123456790123,20.30246913580247,0)" xlink:href="#ap"/><use transform="matrix(0.06790123456790123,0,0,0.06790123456790123,28.382716049382715,0)" xlink:href="#af"/><use transform="matrix(0.06790123456790123,0,0,0.06790123456790123,40.60493827160494,0)" xlink:href="#ak"/><use transform="matrix(0.06790123456790123,0,0,0.06790123456790123,48.68518518518518,0)" xlink:href="#aw"/><use transform="matrix(0.06790123456790123,0,0,0.06790123456790123,67.69753086419753,0)" xlink:href="#ad"/><use transform="matrix(0.06790123456790123,0,0,0.06790123456790123,78.49382716049382,0)" xlink:href="#ae"/><use transform="matrix(0.06790123456790123,0,0,0.06790123456790123,85.28395061728395,0)" xlink:href="#ab"/><use transform="matrix(0.06790123456790123,0,0,0.06790123456790123,92.07407407407406,0)" xlink:href="#af"/><use transform="matrix(0.06790123456790123,0,0,0.06790123456790123,104.2962962962963,0)" xlink:href="#ag"/></g><g id="w"><use transform="matrix(0.06790123456790123,0,0,0.06790123456790123,0,0)" xlink:href="#an"/><use transform="matrix(0.06790123456790123,0,0,0.06790123456790123,17.586419753086417,0)" xlink:href="#ao"/><use transform="matrix(0.06790123456790123,0,0,0.06790123456790123,27.092592592592588,0)" xlink:href="#aj"/><use transform="matrix(0.06790123456790123,0,0,0.06790123456790123,37.888888888888886,0)" xlink:href="#ak"/></g><g id="x"><use transform="matrix(0.04320987654320985,0,0,0.04320987654320985,0,0)" xlink:href="#aq"/><use transform="matrix(0.04320987654320985,0,0,0.04320987654320985,11.191358024691352,0)" xlink:href="#ab"/><use transform="matrix(0.04320987654320985,0,0,0.04320987654320985,15.512345679012338,0)" xlink:href="#ao"/><use transform="matrix(0.04320987654320985,0,0,0.04320987654320985,21.561728395061717,0)" xlink:href="#Z"/><use transform="matrix(0.04320987654320985,0,0,0.04320987654320985,29.339506172839492,0)" xlink:href="#aa"/><use transform="matrix(0.04320987654320985,0,0,0.04320987654320985,33.66049382716048,0)" xlink:href="#ad"/><use transform="matrix(0.04320987654320985,0,0,0.04320987654320985,40.530864197530846,0)" xlink:href="#ay"/></g><g id="y"><use transform="matrix(0.04320987654320985,0,0,0.04320987654320985,0,0)" xlink:href="#aD"/><use transform="matrix(0.04320987654320985,0,0,0.04320987654320985,7.777777777777773,0)" xlink:href="#ao"/><use transform="matrix(0.04320987654320985,0,0,0.04320987654320985,13.827160493827153,0)" xlink:href="#aj"/><use transform="matrix(0.04320987654320985,0,0,0.04320987654320985,20.697530864197518,0)" xlink:href="#ak"/></g><g id="z"><use transform="matrix(0.04320987654320985,0,0,0.04320987654320985,0,0)" xlink:href="#am"/><use transform="matrix(0.04320987654320985,0,0,0.04320987654320985,5.141975308641973,0)" xlink:href="#ag"/><use transform="matrix(0.04320987654320985,0,0,0.04320987654320985,12.919753086419746,0)" xlink:href="#ap"/><use transform="matrix(0.04320987654320985,0,0,0.04320987654320985,18.06172839506172,0)" xlink:href="#af"/></g><path fill="#3a414a" d="M13-82c-2-68 46-101 114-84 8-3 15-8 28-7V64l18 4v9h-70v-9l23-4c1-25-2-53 2-75-11 8-27 15-47 15-49-1-66-35-68-86zm113-70c-53-13-86 12-81 70-6 54 34 80 81 61v-131" id="aF"/><g id="A"><use transform="matrix(0.04320987654320985,0,0,0.04320987654320985,0,0)" xlink:href="#Y"/><use transform="matrix(0.04320987654320985,0,0,0.04320987654320985,11.191358024691352,0)" xlink:href="#ac"/><use transform="matrix(0.04320987654320985,0,0,0.04320987654320985,18.06172839506172,0)" xlink:href="#aF"/><use transform="matrix(0.04320987654320985,0,0,0.04320987654320985,25.839506172839492,0)" xlink:href="#aD"/><use transform="matrix(0.04320987654320985,0,0,0.04320987654320985,33.617283950617264,0)" xlink:href="#ab"/><use transform="matrix(0.04320987654320985,0,0,0.04320987654320985,37.93827160493825,0)" xlink:href="#ak"/><use transform="matrix(0.04320987654320985,0,0,0.04320987654320985,43.080246913580226,0)" xlink:href="#aj"/></g><g id="B"><use transform="matrix(0.04320987654320985,0,0,0.04320987654320985,0,0)" xlink:href="#az"/><use transform="matrix(0.04320987654320985,0,0,0.04320987654320985,10.370370370370365,0)" xlink:href="#ak"/><use transform="matrix(0.04320987654320985,0,0,0.04320987654320985,15.512345679012338,0)" xlink:href="#af"/><use transform="matrix(0.04320987654320985,0,0,0.04320987654320985,23.29012345679011,0)" xlink:href="#aA"/><use transform="matrix(0.04320987654320985,0,0,0.04320987654320985,34.48148148148147,0)" xlink:href="#au"/><use transform="matrix(0.04320987654320985,0,0,0.04320987654320985,42.25925925925924,0)" xlink:href="#aj"/><use transform="matrix(0.04320987654320985,0,0,0.04320987654320985,49.129629629629605,0)" xlink:href="#au"/><use transform="matrix(0.04320987654320985,0,0,0.04320987654320985,56.907407407407376,0)" xlink:href="#ag"/><use transform="matrix(0.04320987654320985,0,0,0.04320987654320985,64.68518518518515,0)" xlink:href="#aj"/><use transform="matrix(0.04320987654320985,0,0,0.04320987654320985,71.55555555555551,0)" xlink:href="#ao"/><use transform="matrix(0.04320987654320985,0,0,0.04320987654320985,77.6049382716049,0)" xlink:href="#ao"/></g><g id="C"><use transform="matrix(0.04320987654320985,0,0,0.04320987654320985,0,0)" xlink:href="#aq"/><use transform="matrix(0.04320987654320985,0,0,0.04320987654320985,11.191358024691352,0)" xlink:href="#ad"/><use transform="matrix(0.04320987654320985,0,0,0.04320987654320985,18.06172839506172,0)" xlink:href="#ae"/><use transform="matrix(0.04320987654320985,0,0,0.04320987654320985,22.382716049382708,0)" xlink:href="#ad"/></g><g id="D"><use transform="matrix(0.04320987654320985,0,0,0.04320987654320985,0,0)" xlink:href="#Y"/><use transform="matrix(0.04320987654320985,0,0,0.04320987654320985,11.191358024691352,0)" xlink:href="#aF"/><use transform="matrix(0.04320987654320985,0,0,0.04320987654320985,18.969135802469125,0)" xlink:href="#aD"/><use transform="matrix(0.04320987654320985,0,0,0.04320987654320985,26.7469135802469,0)" xlink:href="#ab"/><use transform="matrix(0.04320987654320985,0,0,0.04320987654320985,31.067901234567884,0)" xlink:href="#ak"/><use transform="matrix(0.04320987654320985,0,0,0.04320987654320985,36.20987654320986,0)" xlink:href="#aj"/></g><g id="E"><use transform="matrix(0.04320987654320985,0,0,0.04320987654320985,0,0)" xlink:href="#al"/><use transform="matrix(0.04320987654320985,0,0,0.04320987654320985,8.641975308641971,0)" xlink:href="#af"/><use transform="matrix(0.04320987654320985,0,0,0.04320987654320985,16.419753086419746,0)" xlink:href="#ab"/><use transform="matrix(0.04320987654320985,0,0,0.04320987654320985,20.740740740740733,0)" xlink:href="#ag"/><use transform="matrix(0.04320987654320985,0,0,0.04320987654320985,28.518518518518505,0)" xlink:href="#ae"/></g><g id="F"><use transform="matrix(0.04320987654320985,0,0,0.04320987654320985,0,0)" xlink:href="#ae"/><use transform="matrix(0.04320987654320985,0,0,0.04320987654320985,4.3209876543209855,0)" xlink:href="#af"/></g><g id="G"><use transform="matrix(0.04320987654320985,0,0,0.04320987654320985,0,0)" xlink:href="#ax"/><use transform="matrix(0.04320987654320985,0,0,0.04320987654320985,10.370370370370365,0)" xlink:href="#af"/><use transform="matrix(0.04320987654320985,0,0,0.04320987654320985,18.148148148148138,0)" xlink:href="#aD"/><use transform="matrix(0.04320987654320985,0,0,0.04320987654320985,25.925925925925913,0)" xlink:href="#ae"/><use transform="matrix(0.04320987654320985,0,0,0.04320987654320985,30.246913580246897,0)" xlink:href="#ab"/><use transform="matrix(0.04320987654320985,0,0,0.04320987654320985,34.567901234567884,0)" xlink:href="#ag"/><use transform="matrix(0.04320987654320985,0,0,0.04320987654320985,42.345679012345656,0)" xlink:href="#aE"/></g><path fill="#3a414a" d="M111-226l-36 4v207c33-1 73 2 101-4l11-49h11l-3 68H10v-9l31-5v-208l-31-4v-10h101v10" id="aG"/><g id="H"><use transform="matrix(0.04320987654320985,0,0,0.04320987654320985,0,0)" xlink:href="#aG"/><use transform="matrix(0.04320987654320985,0,0,0.04320987654320985,9.462962962962958,0)" xlink:href="#af"/><use transform="matrix(0.04320987654320985,0,0,0.04320987654320985,17.240740740740733,0)" xlink:href="#ad"/><use transform="matrix(0.04320987654320985,0,0,0.04320987654320985,24.111111111111097,0)" xlink:href="#au"/></g><g id="I"><use transform="matrix(0.04320987654320985,0,0,0.04320987654320985,0,0)" xlink:href="#as"/><use transform="matrix(0.04320987654320985,0,0,0.04320987654320985,8.641975308641971,0)" xlink:href="#at"/><use transform="matrix(0.04320987654320985,0,0,0.04320987654320985,16.419753086419746,0)" xlink:href="#ak"/><use transform="matrix(0.04320987654320985,0,0,0.04320987654320985,21.56172839506172,0)" xlink:href="#ab"/><use transform="matrix(0.04320987654320985,0,0,0.04320987654320985,25.882716049382708,0)" xlink:href="#ag"/><use transform="matrix(0.04320987654320985,0,0,0.04320987654320985,33.66049382716048,0)" xlink:href="#aj"/></g><use transform="matrix(0.04320987654320985,0,0,0.04320987654320985,0,0)" xlink:href="#aC" id="J"/><g id="K"><use transform="matrix(0.04320987654320985,0,0,0.04320987654320985,0,0)" xlink:href="#an"/><use transform="matrix(0.04320987654320985,0,0,0.04320987654320985,11.191358024691352,0)" xlink:href="#ao"/><use transform="matrix(0.04320987654320985,0,0,0.04320987654320985,17.240740740740733,0)" xlink:href="#aj"/><use transform="matrix(0.04320987654320985,0,0,0.04320987654320985,24.111111111111097,0)" xlink:href="#ak"/></g><g id="L"><use transform="matrix(0.04320987654320985,0,0,0.04320987654320985,0,0)" xlink:href="#am"/><use transform="matrix(0.04320987654320985,0,0,0.04320987654320985,5.141975308641973,0)" xlink:href="#ag"/><use transform="matrix(0.04320987654320985,0,0,0.04320987654320985,12.919753086419746,0)" xlink:href="#ap"/><use transform="matrix(0.04320987654320985,0,0,0.04320987654320985,18.06172839506172,0)" xlink:href="#af"/><use transform="matrix(0.04320987654320985,0,0,0.04320987654320985,25.839506172839492,0)" xlink:href="#ak"/><use transform="matrix(0.04320987654320985,0,0,0.04320987654320985,30.981481481481463,0)" xlink:href="#aw"/><use transform="matrix(0.04320987654320985,0,0,0.04320987654320985,43.080246913580226,0)" xlink:href="#ad"/><use transform="matrix(0.04320987654320985,0,0,0.04320987654320985,49.95061728395059,0)" xlink:href="#ae"/><use transform="matrix(0.04320987654320985,0,0,0.04320987654320985,54.27160493827157,0)" xlink:href="#ab"/><use transform="matrix(0.04320987654320985,0,0,0.04320987654320985,58.592592592592574,0)" xlink:href="#af"/><use transform="matrix(0.04320987654320985,0,0,0.04320987654320985,66.37037037037034,0)" xlink:href="#ag"/></g><g id="M"><use transform="matrix(0.04320987654320986,0,0,0.04320987654320986,0,0)" xlink:href="#aq"/><use transform="matrix(0.04320987654320986,0,0,0.04320987654320986,11.191358024691354,0)" xlink:href="#ab"/><use transform="matrix(0.04320987654320986,0,0,0.04320987654320986,15.512345679012343,0)" xlink:href="#ao"/><use transform="matrix(0.04320987654320986,0,0,0.04320987654320986,21.56172839506172,0)" xlink:href="#Z"/><use transform="matrix(0.04320987654320986,0,0,0.04320987654320986,29.339506172839496,0)" xlink:href="#aa"/><use transform="matrix(0.04320987654320986,0,0,0.04320987654320986,33.66049382716048,0)" xlink:href="#ad"/><use transform="matrix(0.04320987654320986,0,0,0.04320987654320986,40.530864197530846,0)" xlink:href="#ay"/></g><g id="N"><use transform="matrix(0.04320987654320986,0,0,0.04320987654320986,0,0)" xlink:href="#ax"/><use transform="matrix(0.04320987654320986,0,0,0.04320987654320986,10.370370370370367,0)" xlink:href="#aj"/><use transform="matrix(0.04320987654320986,0,0,0.04320987654320986,17.240740740740733,0)" xlink:href="#ac"/><use transform="matrix(0.04320987654320986,0,0,0.04320987654320986,24.111111111111104,0)" xlink:href="#af"/><use transform="matrix(0.04320987654320986,0,0,0.04320987654320986,31.88888888888888,0)" xlink:href="#aw"/><use transform="matrix(0.04320987654320986,0,0,0.04320987654320986,43.98765432098764,0)" xlink:href="#aw"/><use transform="matrix(0.04320987654320986,0,0,0.04320987654320986,56.086419753086396,0)" xlink:href="#aj"/><use transform="matrix(0.04320987654320986,0,0,0.04320987654320986,62.95679012345677,0)" xlink:href="#ag"/><use transform="matrix(0.04320987654320986,0,0,0.04320987654320986,70.73456790123454,0)" xlink:href="#au"/><use transform="matrix(0.04320987654320986,0,0,0.04320987654320986,78.51234567901231,0)" xlink:href="#ad"/><use transform="matrix(0.04320987654320986,0,0,0.04320987654320986,85.38271604938268,0)" xlink:href="#ae"/><use transform="matrix(0.04320987654320986,0,0,0.04320987654320986,89.70370370370367,0)" xlink:href="#ab"/><use transform="matrix(0.04320987654320986,0,0,0.04320987654320986,94.02469135802465,0)" xlink:href="#ag"/></g><g id="O"><use transform="matrix(0.04320987654320986,0,0,0.04320987654320986,0,0)" xlink:href="#aq"/><use transform="matrix(0.04320987654320986,0,0,0.04320987654320986,11.191358024691354,0)" xlink:href="#ab"/><use transform="matrix(0.04320987654320986,0,0,0.04320987654320986,15.512345679012343,0)" xlink:href="#ao"/><use transform="matrix(0.04320987654320986,0,0,0.04320987654320986,21.56172839506172,0)" xlink:href="#Z"/><use transform="matrix(0.04320987654320986,0,0,0.04320987654320986,29.339506172839496,0)" xlink:href="#aa"/><use transform="matrix(0.04320987654320986,0,0,0.04320987654320986,33.66049382716048,0)" xlink:href="#ad"/><use transform="matrix(0.04320987654320986,0,0,0.04320987654320986,40.530864197530846,0)" xlink:href="#ay"/></g><g id="P"><use transform="matrix(0.04320987654320986,0,0,0.04320987654320986,0,0)" xlink:href="#as"/><use transform="matrix(0.04320987654320986,0,0,0.04320987654320986,8.641975308641973,0)" xlink:href="#at"/><use transform="matrix(0.04320987654320986,0,0,0.04320987654320986,16.419753086419746,0)" xlink:href="#ak"/><use transform="matrix(0.04320987654320986,0,0,0.04320987654320986,21.56172839506172,0)" xlink:href="#ab"/><use transform="matrix(0.04320987654320986,0,0,0.04320987654320986,25.882716049382708,0)" xlink:href="#ag"/><use transform="matrix(0.04320987654320986,0,0,0.04320987654320986,33.66049382716048,0)" xlink:href="#aj"/></g><g id="Q"><use transform="matrix(0.04320987654320986,0,0,0.04320987654320986,0,0)" xlink:href="#aG"/><use transform="matrix(0.04320987654320986,0,0,0.04320987654320986,9.46296296296296,0)" xlink:href="#af"/><use transform="matrix(0.04320987654320986,0,0,0.04320987654320986,17.240740740740733,0)" xlink:href="#ac"/><use transform="matrix(0.04320987654320986,0,0,0.04320987654320986,24.111111111111104,0)" xlink:href="#ad"/><use transform="matrix(0.04320987654320986,0,0,0.04320987654320986,30.981481481481463,0)" xlink:href="#ae"/><use transform="matrix(0.04320987654320986,0,0,0.04320987654320986,35.302469135802454,0)" xlink:href="#ab"/><use transform="matrix(0.04320987654320986,0,0,0.04320987654320986,39.62345679012344,0)" xlink:href="#af"/><use transform="matrix(0.04320987654320986,0,0,0.04320987654320986,47.40123456790122,0)" xlink:href="#ag"/></g><g id="R"><use transform="matrix(0.04320987654320985,0,0,0.04320987654320985,0,0)" xlink:href="#az"/><use transform="matrix(0.04320987654320985,0,0,0.04320987654320985,10.370370370370365,0)" xlink:href="#af"/><use transform="matrix(0.04320987654320985,0,0,0.04320987654320985,18.148148148148138,0)" xlink:href="#aw"/><use transform="matrix(0.04320987654320985,0,0,0.04320987654320985,30.246913580246897,0)" xlink:href="#aw"/><use transform="matrix(0.04320987654320985,0,0,0.04320987654320985,42.345679012345656,0)" xlink:href="#aj"/><use transform="matrix(0.04320987654320985,0,0,0.04320987654320985,49.21604938271602,0)" xlink:href="#ag"/><use transform="matrix(0.04320987654320985,0,0,0.04320987654320985,56.993827160493794,0)" xlink:href="#ae"/><use transform="matrix(0.04320987654320985,0,0,0.04320987654320985,61.31481481481478,0)" xlink:href="#ao"/></g><g id="S"><use transform="matrix(0.04320987654320985,0,0,0.04320987654320985,0,0)" xlink:href="#ad"/><use transform="matrix(0.04320987654320985,0,0,0.04320987654320985,6.870370370370367,0)" xlink:href="#ag"/><use transform="matrix(0.04320987654320985,0,0,0.04320987654320985,14.64814814814814,0)" xlink:href="#au"/></g><g id="T"><use transform="matrix(0.04320987654320985,0,0,0.04320987654320985,0,0)" xlink:href="#ax"/><use transform="matrix(0.04320987654320985,0,0,0.04320987654320985,10.370370370370365,0)" xlink:href="#ad"/><use transform="matrix(0.04320987654320985,0,0,0.04320987654320985,17.240740740740733,0)" xlink:href="#ae"/><use transform="matrix(0.04320987654320985,0,0,0.04320987654320985,21.56172839506172,0)" xlink:href="#ab"/><use transform="matrix(0.04320987654320985,0,0,0.04320987654320985,25.882716049382708,0)" xlink:href="#ag"/><use transform="matrix(0.04320987654320985,0,0,0.04320987654320985,33.66049382716048,0)" xlink:href="#aE"/></g><g id="U"><use transform="matrix(0.06790123456790123,0,0,0.06790123456790123,0,0)" xlink:href="#an"/><use transform="matrix(0.06790123456790123,0,0,0.06790123456790123,17.586419753086417,0)" xlink:href="#ao"/><use transform="matrix(0.06790123456790123,0,0,0.06790123456790123,27.092592592592588,0)" xlink:href="#aj"/><use transform="matrix(0.06790123456790123,0,0,0.06790123456790123,37.888888888888886,0)" xlink:href="#ak"/></g><g id="V"><use transform="matrix(0.04320987654320985,0,0,0.04320987654320985,0,0)" xlink:href="#an"/><use transform="matrix(0.04320987654320985,0,0,0.04320987654320985,11.191358024691352,0)" xlink:href="#ao"/><use transform="matrix(0.04320987654320985,0,0,0.04320987654320985,17.240740740740733,0)" xlink:href="#aj"/><use transform="matrix(0.04320987654320985,0,0,0.04320987654320985,24.111111111111097,0)" xlink:href="#ak"/></g><g id="W"><use transform="matrix(0.04320987654320985,0,0,0.04320987654320985,0,0)" xlink:href="#am"/><use transform="matrix(0.04320987654320985,0,0,0.04320987654320985,5.141975308641973,0)" xlink:href="#ag"/><use transform="matrix(0.04320987654320985,0,0,0.04320987654320985,12.919753086419746,0)" xlink:href="#ae"/><use transform="matrix(0.04320987654320985,0,0,0.04320987654320985,17.240740740740733,0)" xlink:href="#aj"/><use transform="matrix(0.04320987654320985,0,0,0.04320987654320985,24.111111111111097,0)" xlink:href="#ak"/><use transform="matrix(0.04320987654320985,0,0,0.04320987654320985,29.253086419753075,0)" xlink:href="#ad"/><use transform="matrix(0.04320987654320985,0,0,0.04320987654320985,36.12345679012344,0)" xlink:href="#ac"/><use transform="matrix(0.04320987654320985,0,0,0.04320987654320985,42.99382716049381,0)" xlink:href="#ae"/><use transform="matrix(0.04320987654320985,0,0,0.04320987654320985,47.3148148148148,0)" xlink:href="#ab"/><use transform="matrix(0.04320987654320985,0,0,0.04320987654320985,51.63580246913578,0)" xlink:href="#af"/><use transform="matrix(0.04320987654320985,0,0,0.04320987654320985,59.41358024691356,0)" xlink:href="#ag"/></g><g id="X"><use transform="matrix(0.04320987654320985,0,0,0.04320987654320985,0,0)" xlink:href="#ax"/><use transform="matrix(0.04320987654320985,0,0,0.04320987654320985,10.370370370370365,0)" xlink:href="#aj"/><use transform="matrix(0.04320987654320985,0,0,0.04320987654320985,17.240740740740733,0)" xlink:href="#au"/><use transform="matrix(0.04320987654320985,0,0,0.04320987654320985,25.018518518518505,0)" xlink:href="#ab"/><use transform="matrix(0.04320987654320985,0,0,0.04320987654320985,29.339506172839492,0)" xlink:href="#ak"/><use transform="matrix(0.04320987654320985,0,0,0.04320987654320985,34.48148148148147,0)" xlink:href="#aj"/><use transform="matrix(0.04320987654320985,0,0,0.04320987654320985,41.35185185185183,0)" xlink:href="#ac"/><use transform="matrix(0.04320987654320985,0,0,0.04320987654320985,48.22222222222219,0)" xlink:href="#ae"/></g></defs></g></svg>