<svg xmlns="http://www.w3.org/2000/svg" xmlns:xlink="http://www.w3.org/1999/xlink" xmlns:lucid="lucid" width="1403" height="783"><g transform="translate(-278.5 201.5)" lucid:page-tab-id="0_0"><path d="M0-500h2000v1500H0z" fill="#fff"/><path d="M580-96.33v-46.34a6 6 0 0 1 6-6h348a6 6 0 0 1 6 6v46.34z" stroke="#282c33" stroke-width="3" fill="#fff"/><path d="M940-96.33v621a6 6 0 0 1-6 6H586a6 6 0 0 1-6-6v-621z" stroke="#282c33" stroke-width="3" fill="none"/><use xlink:href="#a" transform="matrix(1,0,0,1,580,-148.66666666666674) translate(106.67283950617283 32.72222222222222)"/><path d="M1000 232.33V186a6 6 0 0 1 6-6h348a6 6 0 0 1 6 6v46.33z" stroke="#282c33" stroke-width="3" fill="#fff"/><path d="M1360 232.33v292.34a6 6 0 0 1-6 6h-348a6 6 0 0 1-6-6V232.33z" stroke="#282c33" stroke-width="3" fill="none"/><use xlink:href="#b" transform="matrix(1,0,0,1,1000,179.99999999999972) translate(98.59259259259258 32.72222222222222)"/><use xlink:href="#c" transform="matrix(1,0,0,1,1000,179.99999999999972) translate(211.45679012345678 32.72222222222222)"/><path d="M1290 249.4c16.57 0 30 13.44 30 30v59.27c0 16.56-13.43 30-30 30h-220c-16.57 0-30-13.44-30-30V279.4c0-16.56 13.43-30 30-30zM1290 388.67c16.57 0 30 13.43 30 30V470c0 16.57-13.43 30-30 30h-220c-16.57 0-30-13.43-30-30v-51.33c0-16.57 13.43-30 30-30zM870-80c16.57 0 30 13.43 30 30v90c0 16.57-13.43 30-30 30H650c-16.57 0-30-13.43-30-30v-90c0-16.57 13.43-30 30-30zM870 130c16.57 0 30 13.43 30 30v90c0 16.57-13.43 30-30 30H650c-16.57 0-30-13.43-30-30v-90c0-16.57 13.43-30 30-30zM870 340c16.57 0 30 13.43 30 30v90c0 16.57-13.43 30-30 30H650c-16.57 0-30-13.43-30-30v-90c0-16.57 13.43-30 30-30zM1290-80c16.57 0 30 13.43 30 30V70c0 16.57-13.43 30-30 30h-220c-16.57 0-30-13.43-30-30V-50c0-16.57 13.43-30 30-30z" stroke="#282c33" stroke-width="3" fill-opacity="0"/><path d="M1000-96.33v-46.34a6 6 0 0 1 6-6h348a6 6 0 0 1 6 6v46.34z" stroke="#282c33" stroke-width="3" fill="#fff"/><path d="M1360-96.33v241a6 6 0 0 1-6 6h-348a6 6 0 0 1-6-6v-241z" stroke="#282c33" stroke-width="3" fill="none"/><use xlink:href="#d" transform="matrix(1,0,0,1,1000,-148.66666666666674) translate(99.80246913580247 32.72222222222222)"/><path d="M300-174a6 6 0 0 1 6-6h1348a6 6 0 0 1 6 6v728a6 6 0 0 1-6 6H306a6 6 0 0 1-6-6z" stroke="#282c33" stroke-width="3" fill-opacity="0"/><path d="M1040 284.67a6 6 0 0 1 6-6h268a6 6 0 0 1 6 6v48a6 6 0 0 1-6 6h-268a6 6 0 0 1-6-6z" fill="none"/><use xlink:href="#e" transform="matrix(1,0,0,1,1040,278.66666666666646) translate(23.20370370370371 24.888888888888893)"/><use xlink:href="#f" transform="matrix(1,0,0,1,1040,278.66666666666646) translate(198.29012345679013 24.888888888888893)"/><use xlink:href="#g" transform="matrix(1,0,0,1,1040,278.66666666666646) translate(115.02469135802468 62.222222222222236)"/><path d="M1040 416a6 6 0 0 1 6-6h268a6 6 0 0 1 6 6v58a6 6 0 0 1-6 6h-268a6 6 0 0 1-6-6z" fill="none"/><use xlink:href="#h" transform="matrix(1,0,0,1,1040,409.99999999999983) translate(20.43827160493825 41.22222222222222)"/><use xlink:href="#i" transform="matrix(1,0,0,1,1040,409.99999999999983) translate(85.16666666666666 41.22222222222222)"/><use xlink:href="#j" transform="matrix(1,0,0,1,1040,409.99999999999983) translate(101.5864197530864 41.22222222222222)"/><use xlink:href="#g" transform="matrix(1,0,0,1,1040,409.99999999999983) translate(209.61111111111111 41.22222222222222)"/><path d="M640-29a6 6 0 0 1 6-6h228a6 6 0 0 1 6 6v48a6 6 0 0 1-6 6H646a6 6 0 0 1-6-6z" fill="none"/><use xlink:href="#k" transform="matrix(1,0,0,1,640,-35) translate(1.3456790123456557 36.22222222222222)"/><use xlink:href="#l" transform="matrix(1,0,0,1,640,-35) translate(65.20987654320986 36.22222222222222)"/><use xlink:href="#m" transform="matrix(1,0,0,1,640,-35) translate(126.48148148148148 36.22222222222222)"/><path d="M640 182.5a6 6 0 0 1 6-6h228a6 6 0 0 1 6 6v48a6 6 0 0 1-6 6H646a6 6 0 0 1-6-6z" fill="none"/><use xlink:href="#n" transform="matrix(1,0,0,1,640,176.5) translate(21.351851851851833 36.22222222222222)"/><use xlink:href="#o" transform="matrix(1,0,0,1,640,176.5) translate(110.01851851851852 36.22222222222222)"/><path d="M640 391a6 6 0 0 1 6-6h228a6 6 0 0 1 6 6v48a6 6 0 0 1-6 6H646a6 6 0 0 1-6-6z" fill="none"/><use xlink:href="#p" transform="matrix(1,0,0,1,640,385.00000000000006) translate(63.179012345679006 36.22222222222222)"/><path d="M1037 309.04h-61a6 6 0 0 1-6-6V211a6 6 0 0 0-6-6h-41.88" stroke="#3a414a" stroke-width="3" fill="none"/><path d="M1038.5 310.5h-1.54v-2.94h1.54z" stroke="#3a414a" stroke-width=".05" fill="#3a414a"/><path d="M906.35 205l14.27-4.63v9.26z" stroke="#3a414a" stroke-width="3" fill="#3a414a"/><path d="M1037 444.33h-61a6 6 0 0 1-6-6V211a6 6 0 0 0-6-6h-41.88" stroke="#3a414a" stroke-width="3" fill="none"/><path d="M1038.5 445.8h-1.54v-2.94h1.54z" stroke="#3a414a" stroke-width=".05" fill="#3a414a"/><path d="M906.35 205l14.27-4.63v9.26z" stroke="#3a414a" stroke-width="3" fill="#3a414a"/><path d="M760 283v34.88" stroke="#3a414a" stroke-width="3" fill="none"/><path d="M761.48 283.04h-2.96v-1.54h2.96z" stroke="#3a414a" stroke-width=".05" fill="#3a414a"/><path d="M760 333.65l-4.63-14.27h9.26z" stroke="#3a414a" stroke-width="3" fill="#3a414a"/><path d="M760 127V92.12" stroke="#3a414a" stroke-width="3" fill="none"/><path d="M761.48 128.5h-2.96v-1.54h2.96z" stroke="#3a414a" stroke-width=".05" fill="#3a414a"/><path d="M760 76.35l4.63 14.27h-9.26z" stroke="#3a414a" stroke-width="3" fill="#3a414a"/><path d="M760 73v34.88" stroke="#3a414a" stroke-width="3" fill="none"/><path d="M761.48 73.04h-2.96V71.5h2.96z" stroke="#3a414a" stroke-width=".05" fill="#3a414a"/><path d="M760 123.65l-4.63-14.27h9.26z" stroke="#3a414a" stroke-width="3" fill="#3a414a"/><path d="M760 337v-34.88" stroke="#3a414a" stroke-width="3" fill="none"/><path d="M761.48 338.5h-2.96v-1.54h2.96z" stroke="#3a414a" stroke-width=".05" fill="#3a414a"/><path d="M760 286.35l4.63 14.27h-9.26z" stroke="#3a414a" stroke-width="3" fill="#3a414a"/><path d="M1040-14a6 6 0 0 1 6-6h268a6 6 0 0 1 6 6v48a6 6 0 0 1-6 6h-268a6 6 0 0 1-6-6z" fill="none"/><g><use xlink:href="#q" transform="matrix(1,0,0,1,1040,-20.000000000000057) translate(104.69753086419753 36.22222222222222)"/></g><path d="M1038.5-5H922.12" stroke="#3a414a" stroke-width="3" fill="none"/><path d="M1040-3.52h-1.54v-2.95h1.54z" stroke="#3a414a" stroke-width=".05" fill="#3a414a"/><path d="M906.36-5l14.26-4.63v9.27z" stroke="#3a414a" stroke-width="3" fill="#3a414a"/><defs><path fill="#3a414a" d="M81-9v9H4v-9l26-5 81-224h33l83 224 30 5v9h-99v-9l31-5-23-68H73L49-14zm38-203L78-98h82" id="r"/><path fill="#3a414a" d="M166-85c3 67-44 102-111 85l1 64 29 4v9H6v-9l21-4v-217c-7-3-22 1-19-12h46l1 9c11-8 26-14 45-14 47 2 64 36 66 85zM56-13c53 14 83-14 78-72 7-53-33-79-78-60v132" id="s"/><path fill="#3a414a" d="M65-12l28 4v8H7v-8l28-4v-226l-28-4v-8h58v238" id="t"/><path fill="#3a414a" d="M47-200c-23 0-25-39 0-38 13 0 18 7 20 19-1 11-8 19-20 19zM65-12l28 4v8H8v-8l28-4v-141l-24-4v-8h53v153" id="u"/><path fill="#3a414a" d="M45-84c0 64 52 80 104 63 1 25-30 25-55 25-56 0-80-32-80-88 0-76 62-98 131-80v46h-10c-5-15-4-31-23-35-47-10-67 21-67 69" id="v"/><path fill="#3a414a" d="M32-163c41-10 102-14 102 39v112c8 3 24-2 21 12h-45l-4-17C83 13 3 13 13-46c-2-50 45-50 92-51 4-36-5-70-42-56-6 2-12 4-16 6-4 7 0 23-15 20v-36zM42-47c0 41 41 33 63 22v-59c-34 1-63-1-63 37" id="w"/><path fill="#3a414a" d="M54-38c-1 25 24 26 44 20v12C71 10 25 9 25-35v-115H4c-2-14 14-10 21-15l18-38h11v38h38v15H54v112" id="x"/><path fill="#3a414a" d="M90-170c52 0 76 32 76 87 0 54-24 87-77 87-51 0-75-34-75-87 0-54 24-87 76-87zM89-10c39 0 46-35 46-73 0-39-7-73-46-73-39 1-44 34-44 73s6 72 44 73" id="y"/><path fill="#3a414a" d="M125-118c4-37-41-34-68-26v132l23 4v8H8C5-13 21-9 28-12v-141c-7-3-23 1-20-12h47l2 13c31-23 98-29 98 31v109c7 3 23-1 20 12h-72v-8l22-4v-106" id="z"/><g id="a"><use transform="matrix(0.08641975308641976,0,0,0.08641975308641976,0,0)" xlink:href="#r"/><use transform="matrix(0.08641975308641976,0,0,0.08641975308641976,22.38271604938272,0)" xlink:href="#s"/><use transform="matrix(0.08641975308641976,0,0,0.08641975308641976,37.93827160493828,0)" xlink:href="#s"/><use transform="matrix(0.08641975308641976,0,0,0.08641975308641976,53.49382716049383,0)" xlink:href="#t"/><use transform="matrix(0.08641975308641976,0,0,0.08641975308641976,62.13580246913581,0)" xlink:href="#u"/><use transform="matrix(0.08641975308641976,0,0,0.08641975308641976,70.77777777777779,0)" xlink:href="#v"/><use transform="matrix(0.08641975308641976,0,0,0.08641975308641976,84.51851851851853,0)" xlink:href="#w"/><use transform="matrix(0.08641975308641976,0,0,0.08641975308641976,98.2592592592593,0)" xlink:href="#x"/><use transform="matrix(0.08641975308641976,0,0,0.08641975308641976,106.90123456790124,0)" xlink:href="#u"/><use transform="matrix(0.08641975308641976,0,0,0.08641975308641976,115.54320987654322,0)" xlink:href="#y"/><use transform="matrix(0.08641975308641976,0,0,0.08641975308641976,131.0987654320988,0)" xlink:href="#z"/></g><path fill="#3a414a" d="M10-9l31-5v-208l-31-4v-10h177v57h-11l-6-38c-28-4-63-3-95-3v92h63l6-28h11v73h-11l-6-29H75v96l105-3 10-43h12l-3 62H10v-9" id="A"/><path fill="#3a414a" d="M156-12c7 3 23-1 20 12h-75v-8l22-4-38-58-45 58 23 4v8H3v-8l19-3 55-71-48-71c-7-3-23 1-20-12h75v8l-22 4 32 48 37-48-23-4v-8h59v8l-19 3-46 60" id="B"/><path fill="#3a414a" d="M84-170c49 0 66 33 63 87H46c-8 60 38 80 95 63v10C128-2 108 4 88 4 34 4 14-29 14-84c-1-54 22-86 70-86zm33 73c12-57-57-82-69-24-1 7-2 15-2 24h71" id="C"/><path fill="#3a414a" d="M57-145c16-10 35-24 60-25v45c-19 1-8-30-40-17l-20 6v124l29 4v8H7v-8l21-4v-141c-8-3-24 2-21-12h48" id="D"/><g id="b"><use transform="matrix(0.08641975308641976,0,0,0.08641975308641976,0,0)" xlink:href="#A"/><use transform="matrix(0.08641975308641976,0,0,0.08641975308641976,18.925925925925927,0)" xlink:href="#B"/><use transform="matrix(0.08641975308641976,0,0,0.08641975308641976,34.48148148148148,0)" xlink:href="#x"/><use transform="matrix(0.08641975308641976,0,0,0.08641975308641976,43.123456790123456,0)" xlink:href="#C"/><use transform="matrix(0.08641975308641976,0,0,0.08641975308641976,56.864197530864196,0)" xlink:href="#D"/><use transform="matrix(0.08641975308641976,0,0,0.08641975308641976,67.14814814814815,0)" xlink:href="#z"/><use transform="matrix(0.08641975308641976,0,0,0.08641975308641976,82.70370370370371,0)" xlink:href="#w"/><use transform="matrix(0.08641975308641976,0,0,0.08641975308641976,96.44444444444446,0)" xlink:href="#t"/></g><path fill="#3a414a" d="M75-108c48 3 76-12 76-58s-28-57-76-54v112zm111-58c-1 60-46 78-111 74v78l37 5v9H13v-9l28-5v-208l-31-4v-10c81 1 178-14 176 70" id="E"/><path fill="#3a414a" d="M77-14l30 5v9H13v-9l30-5v-208l-30-4v-10h94v10l-30 4v208" id="F"/><g id="c"><use transform="matrix(0.08641975308641976,0,0,0.08641975308641976,0,0)" xlink:href="#r"/><use transform="matrix(0.08641975308641976,0,0,0.08641975308641976,22.38271604938272,0)" xlink:href="#E"/><use transform="matrix(0.08641975308641976,0,0,0.08641975308641976,39.66666666666667,0)" xlink:href="#F"/></g><path fill="#3a414a" d="M178-68c0 79-95 82-154 59v-54h12c1 35 22 52 60 52 50 0 69-58 33-82-39-24-105-21-105-85 0-67 86-66 142-53v49h-12l-6-29c-31-27-121-7-89 42 28 43 119 24 119 101" id="G"/><path fill="#3a414a" d="M60-80l68-73c-7-3-20 0-17-12h58c3 13-13 9-20 12l-47 48 60 93c7 3 21-1 18 12h-68c-3-12 9-9 15-12L82-83 60-60v48c7 3 21-1 18 12H10v-8l21-4v-226l-24-4v-8h53v170" id="H"/><path fill="#3a414a" d="M126-119c3-38-42-31-69-25v132l23 4v8H7v-8l21-4v-226l-24-4v-8h53l-1 98c31-22 99-31 99 31v109c7 3 23-1 20 12h-71v-8l22-4v-107" id="I"/><path fill="#3a414a" d="M13-81c0-71 46-101 114-85l-1-72-28-4v-8h57v238c8 3 24-2 21 12h-47l-2-12C80 23 13-1 13-81zm77-74c-37 1-44 33-45 74 0 38 9 66 45 66 14 0 27-3 36-7v-130c-10-1-24-3-36-3" id="J"/><path fill="#3a414a" d="M41-130c7 48 86 23 86 84 0 56-69 57-112 41v-40c20 0 9 29 31 31 35 19 77-26 41-50-27-18-72-13-72-59 0-50 58-52 100-41v36c-19 1-8-25-28-25-21-7-50-1-46 23" id="K"/><g id="d"><use transform="matrix(0.08641975308641976,0,0,0.08641975308641976,0,0)" xlink:href="#G"/><use transform="matrix(0.08641975308641976,0,0,0.08641975308641976,17.283950617283953,0)" xlink:href="#x"/><use transform="matrix(0.08641975308641976,0,0,0.08641975308641976,25.925925925925927,0)" xlink:href="#w"/><use transform="matrix(0.08641975308641976,0,0,0.08641975308641976,39.66666666666667,0)" xlink:href="#H"/><use transform="matrix(0.08641975308641976,0,0,0.08641975308641976,55.22222222222223,0)" xlink:href="#C"/><use transform="matrix(0.08641975308641976,0,0,0.08641975308641976,68.96296296296298,0)" xlink:href="#I"/><use transform="matrix(0.08641975308641976,0,0,0.08641975308641976,84.51851851851853,0)" xlink:href="#y"/><use transform="matrix(0.08641975308641976,0,0,0.08641975308641976,100.07407407407409,0)" xlink:href="#t"/><use transform="matrix(0.08641975308641976,0,0,0.08641975308641976,108.71604938271606,0)" xlink:href="#J"/><use transform="matrix(0.08641975308641976,0,0,0.08641975308641976,124.27160493827162,0)" xlink:href="#C"/><use transform="matrix(0.08641975308641976,0,0,0.08641975308641976,138.01234567901236,0)" xlink:href="#D"/><use transform="matrix(0.08641975308641976,0,0,0.08641975308641976,148.2962962962963,0)" xlink:href="#K"/></g><path fill="#3a414a" d="M52-115c0 93 80 130 150 87l7-35h11l-1 55c-23 7-52 12-83 12C60 4 19-37 15-115c-5-113 97-141 201-114l1 51h-12l-5-30c-15-9-39-16-62-16-66 0-86 41-86 109" id="L"/><path fill="#3a414a" d="M240-154L185 4h-14l-41-109L90 4H77L20-153c-7-3-23 1-20-12h79v8l-27 4L91-41l40-108h14l40 109 38-113-28-4v-8h63v8" id="M"/><g id="e"><use transform="matrix(0.08641975308641976,0,0,0.08641975308641976,0,0)" xlink:href="#L"/><use transform="matrix(0.08641975308641976,0,0,0.08641975308641976,20.740740740740744,0)" xlink:href="#D"/><use transform="matrix(0.08641975308641976,0,0,0.08641975308641976,31.024691358024693,0)" xlink:href="#y"/><use transform="matrix(0.08641975308641976,0,0,0.08641975308641976,46.580246913580254,0)" xlink:href="#M"/><use transform="matrix(0.08641975308641976,0,0,0.08641975308641976,68.96296296296298,0)" xlink:href="#J"/><use transform="matrix(0.08641975308641976,0,0,0.08641975308641976,84.51851851851853,0)" xlink:href="#C"/><use transform="matrix(0.08641975308641976,0,0,0.08641975308641976,98.2592592592593,0)" xlink:href="#J"/><use transform="matrix(0.08641975308641976,0,0,0.08641975308641976,113.81481481481485,0)" xlink:href="#z"/><use transform="matrix(0.08641975308641976,0,0,0.08641975308641976,129.37037037037038,0)" xlink:href="#C"/><use transform="matrix(0.08641975308641976,0,0,0.08641975308641976,143.11111111111111,0)" xlink:href="#K"/><use transform="matrix(0.08641975308641976,0,0,0.08641975308641976,155.20987654320987,0)" xlink:href="#K"/></g><path fill="#3a414a" d="M75-17c87 13 134-18 134-103 0-78-51-106-134-100v203zm171-102C246 5 139 7 10 0v-9l31-5v-208l-31-4v-10h107c82 0 129 35 129 117" id="N"/><g id="f"><use transform="matrix(0.08641975308641976,0,0,0.08641975308641976,0,0)" xlink:href="#N"/><use transform="matrix(0.08641975308641976,0,0,0.08641975308641976,22.38271604938272,0)" xlink:href="#w"/><use transform="matrix(0.08641975308641976,0,0,0.08641975308641976,36.12345679012346,0)" xlink:href="#x"/><use transform="matrix(0.08641975308641976,0,0,0.08641975308641976,44.76543209876544,0)" xlink:href="#w"/></g><g id="g"><use transform="matrix(0.08641975308641976,0,0,0.08641975308641976,0,0)" xlink:href="#r"/><use transform="matrix(0.08641975308641976,0,0,0.08641975308641976,22.38271604938272,0)" xlink:href="#E"/><use transform="matrix(0.08641975308641976,0,0,0.08641975308641976,39.66666666666667,0)" xlink:href="#F"/></g><path fill="#3a414a" d="M152 0h-7L59-203v189l32 5v9H10v-9l31-5v-208l-31-4v-10h72l76 180 84-180h68v10l-31 4v208l31 5v9h-96v-9l32-5v-189" id="O"/><g id="h"><use transform="matrix(0.08641975308641976,0,0,0.08641975308641976,0,0)" xlink:href="#O"/><use transform="matrix(0.08641975308641976,0,0,0.08641975308641976,27.654320987654323,0)" xlink:href="#w"/><use transform="matrix(0.08641975308641976,0,0,0.08641975308641976,41.39506172839506,0)" xlink:href="#s"/></g><path fill="#3a414a" d="M18 4H0l83-241h17" id="P"/><use transform="matrix(0.08641975308641976,0,0,0.08641975308641976,0,0)" xlink:href="#P" id="i"/><path fill="#3a414a" d="M199-173c-1 36-21 56-49 65l64 94 26 5v9h-57l-66-103H75v89l35 5v9H13v-9l28-5v-208l-31-4v-10c80 4 190-20 189 63zM75-119c50 2 89-1 89-51 0-49-39-52-89-50v101" id="Q"/><path fill="#3a414a" d="M124-13C89 8 26 15 26-45v-108c-8-3-24 2-21-12h50v118c-3 37 42 32 69 25v-131l-25-4v-8h54v153c8 3 24-2 21 12h-48" id="R"/><path fill="#3a414a" d="M141-152c28 39 5 97-54 97-9 0-20-2-27-3L49-35c29 22 130-14 124 52-4 45-38 57-88 61C21 83-8 26 45-2 33-6 22-15 21-31l28-31c-19-9-28-26-28-51-2-51 53-65 100-52l38-20 7 8zM85 64c35 0 61-11 61-42 0-35-57-17-89-21-9 8-16 19-17 34 0 25 19 29 45 29zM52-113c1 26 7 46 35 44 28-1 34-16 35-44 0-26-6-43-34-43s-36 17-36 43" id="S"/><g id="j"><use transform="matrix(0.08641975308641976,0,0,0.08641975308641976,0,0)" xlink:href="#Q"/><use transform="matrix(0.08641975308641976,0,0,0.08641975308641976,20.740740740740744,0)" xlink:href="#y"/><use transform="matrix(0.08641975308641976,0,0,0.08641975308641976,36.296296296296305,0)" xlink:href="#R"/><use transform="matrix(0.08641975308641976,0,0,0.08641975308641976,51.851851851851855,0)" xlink:href="#x"/><use transform="matrix(0.08641975308641976,0,0,0.08641975308641976,60.49382716049384,0)" xlink:href="#u"/><use transform="matrix(0.08641975308641976,0,0,0.08641975308641976,69.13580246913581,0)" xlink:href="#z"/><use transform="matrix(0.08641975308641976,0,0,0.08641975308641976,84.69135802469137,0)" xlink:href="#S"/></g><path fill="#3a414a" d="M319-222L242 5h-10l-61-162L108 5h-9L21-222l-21-4v-10h90v10l-34 4 56 166 63-163h8l61 163 54-166-37-4v-10h78v10" id="T"/><path fill="#3a414a" d="M53-14c58 12 82-15 82-73 0-52-35-77-82-58v131zM89 4C64 4 42-2 24-9v-229l-24-4v-8h53l-1 94c48-33 114-4 114 69 0 57-23 91-77 91" id="U"/><g id="k"><use transform="matrix(0.08641975308641976,0,0,0.08641975308641976,0,0)" xlink:href="#T"/><use transform="matrix(0.08641975308641976,0,0,0.08641975308641976,26.79012345679012,0)" xlink:href="#C"/><use transform="matrix(0.08641975308641976,0,0,0.08641975308641976,40.53086419753087,0)" xlink:href="#U"/></g><g id="l"><use transform="matrix(0.08641975308641976,0,0,0.08641975308641976,0,0)" xlink:href="#r"/><use transform="matrix(0.08641975308641976,0,0,0.08641975308641976,22.38271604938272,0)" xlink:href="#s"/><use transform="matrix(0.08641975308641976,0,0,0.08641975308641976,37.93827160493828,0)" xlink:href="#s"/></g><path fill="#3a414a" d="M75-106v92l39 5v9H13v-9l28-5v-208l-31-4v-10h177v57h-11l-6-38c-28-4-63-3-95-3v98h69l5-28h11v73h-11l-5-29H75" id="V"/><g id="m"><use transform="matrix(0.08641975308641976,0,0,0.08641975308641976,0,0)" xlink:href="#V"/><use transform="matrix(0.08641975308641976,0,0,0.08641975308641976,17.283950617283953,0)" xlink:href="#D"/><use transform="matrix(0.08641975308641976,0,0,0.08641975308641976,27.567901234567906,0)" xlink:href="#y"/><use transform="matrix(0.08641975308641976,0,0,0.08641975308641976,43.12345679012346,0)" xlink:href="#z"/><use transform="matrix(0.08641975308641976,0,0,0.08641975308641976,58.67901234567902,0)" xlink:href="#x"/><use transform="matrix(0.08641975308641976,0,0,0.08641975308641976,67.320987654321,0)" xlink:href="#C"/><use transform="matrix(0.08641975308641976,0,0,0.08641975308641976,81.06172839506175,0)" xlink:href="#z"/><use transform="matrix(0.08641975308641976,0,0,0.08641975308641976,96.61728395061732,0)" xlink:href="#J"/></g><path fill="#3a414a" d="M164-154L98 4H85L17-153c-7-3-20 0-17-12h77v8l-26 4L99-38l46-115-26-4v-8h61v8" id="W"/><g id="n"><use transform="matrix(0.08641975308641976,0,0,0.08641975308641976,0,0)" xlink:href="#G"/><use transform="matrix(0.08641975308641976,0,0,0.08641975308641976,17.283950617283953,0)" xlink:href="#C"/><use transform="matrix(0.08641975308641976,0,0,0.08641975308641976,31.024691358024693,0)" xlink:href="#D"/><use transform="matrix(0.08641975308641976,0,0,0.08641975308641976,41.308641975308646,0)" xlink:href="#W"/><use transform="matrix(0.08641975308641976,0,0,0.08641975308641976,56.8641975308642,0)" xlink:href="#C"/><use transform="matrix(0.08641975308641976,0,0,0.08641975308641976,70.60493827160495,0)" xlink:href="#D"/></g><path fill="#3a414a" d="M75-131c50 2 93 3 93-48 0-46-48-41-93-41v89zm0 115c55 4 111 6 111-51 0-53-58-48-111-48v99zm148-52C223 24 102-3 10 0v-9l31-5v-208l-31-4v-10c77 6 193-24 194 56 0 33-20 48-48 54 36 5 67 20 67 58" id="X"/><g id="o"><use transform="matrix(0.08641975308641976,0,0,0.08641975308641976,0,0)" xlink:href="#X"/><use transform="matrix(0.08641975308641976,0,0,0.08641975308641976,20.740740740740744,0)" xlink:href="#w"/><use transform="matrix(0.08641975308641976,0,0,0.08641975308641976,34.48148148148149,0)" xlink:href="#v"/><use transform="matrix(0.08641975308641976,0,0,0.08641975308641976,48.22222222222223,0)" xlink:href="#H"/><use transform="matrix(0.08641975308641976,0,0,0.08641975308641976,63.777777777777786,0)" xlink:href="#C"/><use transform="matrix(0.08641975308641976,0,0,0.08641975308641976,77.51851851851853,0)" xlink:href="#z"/><use transform="matrix(0.08641975308641976,0,0,0.08641975308641976,93.07407407407409,0)" xlink:href="#J"/></g><g id="p"><use transform="matrix(0.08641975308641976,0,0,0.08641975308641976,0,0)" xlink:href="#N"/><use transform="matrix(0.08641975308641976,0,0,0.08641975308641976,22.38271604938272,0)" xlink:href="#w"/><use transform="matrix(0.08641975308641976,0,0,0.08641975308641976,36.12345679012346,0)" xlink:href="#x"/><use transform="matrix(0.08641975308641976,0,0,0.08641975308641976,44.76543209876544,0)" xlink:href="#w"/><use transform="matrix(0.08641975308641976,0,0,0.08641975308641976,58.50617283950618,0)" xlink:href="#U"/><use transform="matrix(0.08641975308641976,0,0,0.08641975308641976,74.06172839506173,0)" xlink:href="#w"/><use transform="matrix(0.08641975308641976,0,0,0.08641975308641976,87.80246913580248,0)" xlink:href="#K"/><use transform="matrix(0.08641975308641976,0,0,0.08641975308641976,99.90123456790124,0)" xlink:href="#C"/></g><path fill="#3a414a" d="M134-16c44-1 70-21 70-64v-142l-32-4v-10h80v10l-30 4v141c0 57-33 84-91 85-58 0-93-26-93-82v-144l-30-4v-10h94v10l-30 4c7 82-31 209 62 206" id="Y"/><g id="q"><use transform="matrix(0.08641975308641976,0,0,0.08641975308641976,0,0)" xlink:href="#Y"/><use transform="matrix(0.08641975308641976,0,0,0.08641975308641976,22.38271604938272,0)" xlink:href="#K"/><use transform="matrix(0.08641975308641976,0,0,0.08641975308641976,34.48148148148148,0)" xlink:href="#C"/><use transform="matrix(0.08641975308641976,0,0,0.08641975308641976,48.222222222222214,0)" xlink:href="#D"/><use transform="matrix(0.08641975308641976,0,0,0.08641975308641976,58.50617283950617,0)" xlink:href="#K"/></g></defs></g></svg>