<?xml version="1.0" standalone="no"?>
<!DOCTYPE svg PUBLIC "-//W3C//DTD SVG 20010904//EN"
 "http://www.w3.org/TR/2001/REC-SVG-20010904/DTD/svg10.dtd">
<svg version="1.0" xmlns="http://www.w3.org/2000/svg"
 width="512.000000pt" height="512.000000pt" viewBox="0 0 512.000000 512.000000"
 preserveAspectRatio="xMidYMid meet">

<g transform="translate(0.000000,512.000000) scale(0.100000,-0.100000)"
fill="#000000" stroke="none">
<path d="M34 4656 c-22 -22 -34 -44 -34 -62 0 -44 219 -585 250 -615 30 -30
35 -31 360 -55 124 -9 228 -19 231 -23 4 -3 1 -103 -7 -221 -7 -118 -13 -227
-13 -242 l-1 -28 -164 0 -164 0 -31 -31 -31 -31 0 -252 c0 -240 1 -255 20
-279 29 -36 76 -47 213 -47 l119 0 -6 -72 c-21 -240 -135 -2168 -131 -2190 4
-15 20 -39 37 -53 l30 -25 248 0 248 0 30 25 c16 14 32 36 36 48 3 13 35 494
71 1068 35 574 67 1079 71 1122 l6 77 1138 0 1138 0 6 -77 c4 -43 36 -548 71
-1122 36 -574 68 -1055 71 -1068 4 -12 20 -34 36 -48 l30 -25 248 0 248 0 30
25 c17 14 33 38 37 53 4 22 -110 1950 -131 2190 l-6 72 119 0 c137 0 184 11
213 47 19 24 20 39 20 279 l0 252 -31 31 -31 31 -164 0 -164 0 -1 28 c0 15 -6
124 -13 242 -8 118 -11 218 -7 221 3 4 107 14 231 23 325 24 330 25 360 55 31
30 250 571 250 615 0 18 -12 40 -34 62 -42 42 -56 42 -231 10 -397 -74 -985
-137 -1555 -167 -129 -7 -462 -13 -740 -13 -278 0 -611 6 -740 13 -570 30
-1158 93 -1555 167 -175 32 -189 32 -231 -10z m1831 -801 c127 -3 263 -8 303
-11 l72 -6 0 -214 0 -214 -391 0 -392 0 7 78 c3 42 8 131 11 197 3 66 8 135
11 154 l5 34 72 -6 c40 -4 176 -9 302 -12z m1769 -17 c3 -18 8 -87 11 -153 3
-66 8 -155 11 -197 l7 -78 -392 0 -391 0 0 214 0 213 53 7 c28 3 115 6 192 7
77 1 203 5 280 8 250 13 223 16 229 -21z"/>
</g>
</svg>
