<svg xmlns="http://www.w3.org/2000/svg" xmlns:xlink="http://www.w3.org/1999/xlink" xmlns:lucid="lucid" width="2203" height="1363"><g transform="translate(-618.5 881.5)" lucid:page-tab-id="0_0"><path d="M500-1000h2500V500H500z" fill="#fff"/><path d="M1480.2-774a6 6 0 0 1 6-6H2714a6 6 0 0 1 6 6v608a6 6 0 0 1-6 6H1486.2a6 6 0 0 1-6-6z" stroke="#282c33" stroke-width="3" fill-opacity="0"/><use xlink:href="#a" transform="matrix(1,0,0,1,1488.1999999999998,-772) translate(559.4135802469136 24.888888888888893)"/><path d="M1480.1-134a6 6 0 0 1 6-6h1227.8a6 6 0 0 1 6 6v328a6 6 0 0 1-6 6H1486.1a6 6 0 0 1-6-6z" stroke="#282c33" stroke-width="3" fill-opacity="0"/><use xlink:href="#b" transform="matrix(1,0,0,1,1488.1,-132) translate(452.7716049382716 24.888888888888893)"/><use xlink:href="#c" transform="matrix(1,0,0,1,1488.1,-132) translate(679.7098765432099 24.888888888888893)"/><path d="M1480.1 226a6 6 0 0 1 6-6h1227.8a6 6 0 0 1 6 6v188a6 6 0 0 1-6 6H1486.1a6 6 0 0 1-6-6z" stroke="#282c33" stroke-width="3" fill-opacity="0"/><use xlink:href="#d" transform="matrix(1,0,0,1,1488.1,228) translate(493.4320987654321 24.888888888888893)"/><use xlink:href="#e" transform="matrix(1,0,0,1,1488.1,228) translate(582.2716049382716 24.888888888888893)"/><path d="M1460-834a6 6 0 0 1 6-6h1308a6 6 0 0 1 6 6V434a6 6 0 0 1-6 6H1466a6 6 0 0 1-6-6z" stroke="#282c33" stroke-width="3" fill-opacity="0"/><use xlink:href="#f" transform="matrix(1,0,0,1,1468,-832) translate(578.6728395061729 24.888888888888893)"/><path d="M640-854a6 6 0 0 1 6-6h2148a6 6 0 0 1 6 6V454a6 6 0 0 1-6 6H646a6 6 0 0 1-6-6z" stroke="#282c33" stroke-width="3" fill-opacity="0"/><path d="M940-200c0 22.1-17.9 40-40 40s-40-17.9-40-40 17.9-40 40-40 40 17.9 40 40z" stroke="#282c33" stroke-width="3" fill="#fff"/><path d="M900-160v116.8a21.92 21.92 0 0 0 3.05 11.16L980 98M900-37.2L820 98m0-218h160" stroke="#282c33" stroke-width="3" fill="none"/><path d="M820-234a6 6 0 0 1 6-6h148a6 6 0 0 1 6 6v348a6 6 0 0 1-6 6H826a6 6 0 0 1-6-6z" fill="none"/><use xlink:href="#g" transform="matrix(1,0,0,1,740,98) translate(130.7469135802469 24.888888888888893)"/><path d="M2680-680c0 33.14-120.88 60-270 60s-270-26.86-270-60 120.88-60 270-60 270 26.86 270 60z" stroke="#282c33" stroke-width="3" fill="#fff"/><use xlink:href="#h" transform="matrix(1,0,0,1,2140,-740) translate(137.65314814814815 66.13888888888889)"/><use xlink:href="#i" transform="matrix(1,0,0,1,2140,-740) translate(224.7642592592593 66.13888888888889)"/><path d="M2680-39.17c0 33.14-120.88 60-270 60s-270-26.86-270-60c0-33.13 120.88-60 270-60s270 26.87 270 60z" stroke="#282c33" stroke-width="3" fill="#fff"/><use xlink:href="#h" transform="matrix(1,0,0,1,2140,-99.16666666666663) translate(95.78277777777775 47.38888888888889)"/><use xlink:href="#j" transform="matrix(1,0,0,1,2140,-99.16666666666663) translate(182.89388888888888 47.38888888888889)"/><use xlink:href="#k" transform="matrix(1,0,0,1,2140,-99.16666666666663) translate(357.9803086419753 47.38888888888889)"/><use xlink:href="#l" transform="matrix(1,0,0,1,2140,-99.16666666666663) translate(223.42475308641974 84.72222222222223)"/><path d="M2680-539.9c0 33.14-120.88 60-270 60s-270-26.86-270-60 120.88-60 270-60 270 26.86 270 60z" stroke="#282c33" stroke-width="3" fill="#fff"/><use xlink:href="#m" transform="matrix(1,0,0,1,2140,-599.9) translate(222.042037037037 66.13888888888889)"/><use xlink:href="#n" transform="matrix(1,0,0,1,2140,-599.9) translate(286.85685185185184 66.13888888888889)"/><path d="M2040-260c0 33.14-116.3 60-259.75 60-143.46 0-259.75-26.86-259.75-60s116.3-60 259.75-60c143.46 0 259.75 26.86 259.75 60z" stroke="#282c33" stroke-width="3" fill="#fff"/><use xlink:href="#h" transform="matrix(1,0,0,1,1520.4999999999995,-320) translate(126.57290123456788 47.38888888888889)"/><use xlink:href="#o" transform="matrix(1,0,0,1,1520.4999999999995,-320) translate(213.684012345679 47.38888888888889)"/><use xlink:href="#p" transform="matrix(1,0,0,1,1520.4999999999995,-320) translate(252.5729012345679 47.38888888888889)"/><use xlink:href="#q" transform="matrix(1,0,0,1,1520.4999999999995,-320) translate(324.12845679012344 47.38888888888889)"/><use xlink:href="#r" transform="matrix(1,0,0,1,1520.4999999999995,-320) translate(130.2025308641975 84.72222222222223)"/><use xlink:href="#s" transform="matrix(1,0,0,1,1520.4999999999995,-320) translate(253.60993827160496 84.72222222222223)"/><use xlink:href="#t" transform="matrix(1,0,0,1,1520.4999999999995,-320) translate(287.2272222222223 84.72222222222223)"/><use xlink:href="#u" transform="matrix(1,0,0,1,1520.4999999999995,-320) translate(308.74574074074076 84.72222222222223)"/><path d="M2680 320c0 33.14-120.86 60-269.95 60-149.1 0-269.95-26.86-269.95-60s120.86-60 269.95-60c149.1 0 269.95 26.86 269.95 60z" stroke="#282c33" stroke-width="3" fill="#fff"/><use xlink:href="#h" transform="matrix(1,0,0,1,2140.1000000000004,260) translate(80.31364197530864 66.13888888888889)"/><use xlink:href="#v" transform="matrix(1,0,0,1,2140.1000000000004,260) translate(167.42475308641974 66.13888888888889)"/><use xlink:href="#s" transform="matrix(1,0,0,1,2140.1000000000004,260) translate(323.4988271604939 66.13888888888889)"/><use xlink:href="#t" transform="matrix(1,0,0,1,2140.1000000000004,260) translate(357.1161111111111 66.13888888888889)"/><use xlink:href="#u" transform="matrix(1,0,0,1,2140.1000000000004,260) translate(378.63462962962967 66.13888888888889)"/><path d="M2680-260c0 33.14-120.86 60-269.95 60-149.1 0-269.95-26.86-269.95-60s120.86-60 269.95-60c149.1 0 269.95 26.86 269.95 60z" stroke="#282c33" stroke-width="3" fill="#fff"/><use xlink:href="#w" transform="matrix(1,0,0,1,2140.1000000000004,-320) translate(91.93709876543211 47.38888888888889)"/><use xlink:href="#t" transform="matrix(1,0,0,1,2140.1000000000004,-320) translate(175.41858024691362 47.38888888888889)"/><use xlink:href="#x" transform="matrix(1,0,0,1,2140.1000000000004,-320) translate(196.93709876543215 47.38888888888889)"/><use xlink:href="#y" transform="matrix(1,0,0,1,2140.1000000000004,-320) translate(277.13462962962967 47.38888888888889)"/><use xlink:href="#r" transform="matrix(1,0,0,1,2140.1000000000004,-320) translate(293.5543827160494 47.38888888888889)"/><use xlink:href="#z" transform="matrix(1,0,0,1,2140.1000000000004,-320) translate(416.9617901234568 47.38888888888889)"/><use xlink:href="#t" transform="matrix(1,0,0,1,2140.1000000000004,-320) translate(218.71487654320987 84.72222222222223)"/><use xlink:href="#u" transform="matrix(1,0,0,1,2140.1000000000004,-320) translate(240.2333950617284 84.72222222222223)"/><path d="M2040.2 319.98c0 33.15-116.36 60.02-259.9 60.02-143.54 0-259.9-26.87-259.9-60.02 0-33.16 116.36-60.03 259.9-60.03 143.54 0 259.9 26.87 259.9 60.03z" stroke="#282c33" stroke-width="3" fill="#fff"/><use xlink:href="#A" transform="matrix(1,0,0,1,1520.3999999999996,259.94999999999993) translate(100.34450617283947 47.57638888888889)"/><use xlink:href="#B" transform="matrix(1,0,0,1,1520.3999999999996,259.94999999999993) translate(173.71487654320984 47.57638888888889)"/><use xlink:href="#C" transform="matrix(1,0,0,1,1520.3999999999996,259.94999999999993) translate(212.60376543209873 47.57638888888889)"/><use xlink:href="#D" transform="matrix(1,0,0,1,1520.3999999999996,259.94999999999993) translate(313.54203703703706 47.57638888888889)"/><use xlink:href="#E" transform="matrix(1,0,0,1,1520.3999999999996,259.94999999999993) translate(352.430925925926 47.57638888888889)"/><use xlink:href="#F" transform="matrix(1,0,0,1,1520.3999999999996,259.94999999999993) translate(180.32598765432098 84.90972222222223)"/><use xlink:href="#G" transform="matrix(1,0,0,1,1520.3999999999996,259.94999999999993) translate(213.94327160493827 84.90972222222223)"/><path d="M2040.2 110.42c0 33.1-116.36 59.95-259.9 59.95-143.54 0-259.9-26.84-259.9-59.95 0-33.1 116.36-59.95 259.9-59.95 143.54 0 259.9 26.84 259.9 59.95z" stroke="#282c33" stroke-width="3" fill="#fff"/><use xlink:href="#h" transform="matrix(1,0,0,1,1520.3999999999996,50.4666666666667) translate(120.35067901234568 66.13888888888889)"/><use xlink:href="#H" transform="matrix(1,0,0,1,1520.3999999999996,50.4666666666667) translate(207.4617901234568 66.13888888888889)"/><use xlink:href="#l" transform="matrix(1,0,0,1,1520.3999999999996,50.4666666666667) translate(306.4988271604938 66.13888888888889)"/><path d="M2040-39.17c0 33.14-116.36 60-259.9 60-143.54 0-259.9-26.86-259.9-60 0-33.13 116.36-60 259.9-60 143.54 0 259.9 26.87 259.9 60z" stroke="#282c33" stroke-width="3" fill="#fff"/><use xlink:href="#I" transform="matrix(1,0,0,1,1520.1999999999998,-99.16666666666663) translate(84.83216049382715 47.38888888888889)"/><use xlink:href="#J" transform="matrix(1,0,0,1,1520.1999999999998,-99.16666666666663) translate(192.68401234567904 47.38888888888889)"/><use xlink:href="#K" transform="matrix(1,0,0,1,1520.1999999999998,-99.16666666666663) translate(244.36302469135805 47.38888888888889)"/><use xlink:href="#L" transform="matrix(1,0,0,1,1520.1999999999998,-99.16666666666663) translate(333.20253086419757 47.38888888888889)"/><use xlink:href="#M" transform="matrix(1,0,0,1,1520.1999999999998,-99.16666666666663) translate(228.11611111111108 84.72222222222223)"/><path d="M2040.4-680c0 33.14-116.45 60-260.1 60-143.65 0-260.1-26.86-260.1-60s116.45-60 260.1-60c143.65 0 260.1 26.86 260.1 60z" stroke="#282c33" stroke-width="3" fill="#fff"/><use xlink:href="#N" transform="matrix(1,0,0,1,1520.1999999999998,-740) translate(158.1161111111111 66.13888888888889)"/><use xlink:href="#O" transform="matrix(1,0,0,1,1520.1999999999998,-740) translate(215.93092592592592 66.13888888888889)"/><use xlink:href="#y" transform="matrix(1,0,0,1,1520.1999999999998,-740) translate(247.90623456790124 66.13888888888889)"/><use xlink:href="#P" transform="matrix(1,0,0,1,1520.1999999999998,-740) translate(264.325987654321 66.13888888888889)"/><use xlink:href="#Q" transform="matrix(1,0,0,1,1520.1999999999998,-740) translate(322.1408024691358 66.13888888888889)"/><path d="M2040.2-539.95c0 33.17-116.45 60.05-260.1 60.05-143.65 0-260.1-26.9-260.1-60.05 0-33.16 116.45-60.05 260.1-60.05 143.65 0 260.1 26.88 260.1 60.05z" stroke="#282c33" stroke-width="3" fill="#fff"/><use xlink:href="#R" transform="matrix(1,0,0,1,1520,-600) translate(163.08524691358022 66.48263888888889)"/><use xlink:href="#S" transform="matrix(1,0,0,1,1520,-600) translate(251.75191358024693 66.48263888888889)"/><path d="M2039.7-399.9c0 33.14-116.3 60-259.75 60-143.46 0-259.75-26.86-259.75-60s116.3-60 259.75-60c143.46 0 259.75 26.86 259.75 60z" stroke="#282c33" stroke-width="3" fill="#fff"/><use xlink:href="#T" transform="matrix(1,0,0,1,1520.1999999999998,-459.9000000000001) translate(88.02969135802469 47.38888888888889)"/><use xlink:href="#U" transform="matrix(1,0,0,1,1520.1999999999998,-459.9000000000001) translate(163.04203703703703 47.38888888888889)"/><use xlink:href="#y" transform="matrix(1,0,0,1,1520.1999999999998,-459.9000000000001) translate(267.26425925925923 47.38888888888889)"/><use xlink:href="#V" transform="matrix(1,0,0,1,1520.1999999999998,-459.9000000000001) translate(283.684012345679 47.38888888888889)"/><use xlink:href="#W" transform="matrix(1,0,0,1,1520.1999999999998,-459.9000000000001) translate(374.33833333333337 47.38888888888889)"/><use xlink:href="#X" transform="matrix(1,0,0,1,1520.1999999999998,-459.9000000000001) translate(418.2395679012345 47.38888888888889)"/><use xlink:href="#u" transform="matrix(1,0,0,1,1520.1999999999998,-459.9000000000001) translate(219.4741358024691 84.72222222222223)"/><path d="M1041.5-60h232.1a6 6 0 0 0 6-6v-233.93a.05.05 0 0 0-.05-.05.05.05 0 0 1-.05-.04v-233.93a6 6 0 0 1 6-6H1517M1041.54-60H1040" stroke="#3a414a" stroke-width="3" fill="none"/><path d="M1518.56-541.26l-.05.65v.99l.03.63.04.5h-1.6v-2.95h1.6z" stroke="#3a414a" stroke-width=".05" fill="#3a414a"/><path d="M1041.5-60h232.1a6 6 0 0 0 6-6v-608a6 6 0 0 1 6-6h231.6M1041.54-60H1040" stroke="#3a414a" stroke-width="3" fill="none"/><path d="M1518.76-681.3l-.05.64v.99l.03.64.04.5h-1.6v-2.96h1.6z" stroke="#3a414a" stroke-width=".05" fill="#3a414a"/><path d="M1041.5-60h231.85a6 6 0 0 0 6-6v-327.9a6 6 0 0 1 6-6h231.85M1041.54-60H1040" stroke="#3a414a" stroke-width="3" fill="none"/><path d="M1518.76-401.2l-.05.64v.99l.03.64.04.5h-1.6v-2.95h1.6z" stroke="#3a414a" stroke-width=".05" fill="#3a414a"/><path d="M2680-399.8c0 33.14-120.88 60-270 60s-270-26.86-270-60 120.88-60 270-60 270 26.86 270 60z" stroke="#282c33" stroke-width="3" fill="#fff"/><g><use xlink:href="#h" transform="matrix(1,0,0,1,2140,-459.79999999999995) translate(70.33216049382715 66.13888888888889)"/><use xlink:href="#U" transform="matrix(1,0,0,1,2140,-459.79999999999995) translate(157.44327160493827 66.13888888888889)"/><use xlink:href="#y" transform="matrix(1,0,0,1,2140,-459.79999999999995) translate(261.6654938271605 66.13888888888889)"/><use xlink:href="#Y" transform="matrix(1,0,0,1,2140,-459.79999999999995) translate(278.08524691358025 66.13888888888889)"/><use xlink:href="#l" transform="matrix(1,0,0,1,2140,-459.79999999999995) translate(376.51734567901235 66.13888888888889)"/></g><path d="M1041.5-60h232.1a6 6 0 0 0 6-6v-538a6 6 0 0 1 6-6H2404a6 6 0 0 0 6-6v-1M1041.54-60H1040" stroke="#3a414a" stroke-width="3" fill="none"/><path d="M2410-618.5h1.47v1.54h-2.94v-1.57z" stroke="#3a414a" stroke-width=".05" fill="#3a414a"/><path d="M1041.5-60h232a6 6 0 0 0 6-6v-398a6 6 0 0 1 6-6H2404a6 6 0 0 0 6-6v-.9M1041.54-60H1040" stroke="#3a414a" stroke-width="3" fill="none"/><path d="M2410-478.4l1.47-.02v1.56h-2.94v-1.57z" stroke="#3a414a" stroke-width=".05" fill="#3a414a"/><path d="M1041.5-60h232a6 6 0 0 0 6-6v-257.75a6 6 0 0 1 6-6H2404a6 6 0 0 0 6-6v-1.05M1041.54-60H1040" stroke="#3a414a" stroke-width="3" fill="none"/><path d="M2410-338.3h1.47v1.54h-2.94v-1.57z" stroke="#3a414a" stroke-width=".05" fill="#3a414a"/><path d="M1041.5-60H1344a6 6 0 0 1 6 6v8.83a6 6 0 0 0 6 6h161.2M1041.54-60H1040" stroke="#3a414a" stroke-width="3" fill="none"/><path d="M1518.76-40.48l-.05.66v.99l.03.65.04.5h-1.6v-2.96h1.6z" stroke="#3a414a" stroke-width=".05" fill="#3a414a"/><path d="M1041.5-60H1344a6 6 0 0 1 6 6v88a6 6 0 0 0 6 6h1048a6 6 0 0 0 6-6V23.83M1041.54-60H1040" stroke="#3a414a" stroke-width="3" fill="none"/><path d="M2410 22.33h1.47v1.54h-2.94V22.3z" stroke="#3a414a" stroke-width=".05" fill="#3a414a"/><path d="M2042.94-40.44H2117.93" stroke="#3a414a" stroke-width="3" fill="none"/><path d="M2042.98-38.97h-1.48v-.53l-.03-.65-.06-.66-.07-.67-.07-.45h1.72z" stroke="#3a414a" stroke-width=".05" fill="#3a414a"/><path d="M2133.7-40.44l-14.27 4.63v-9.28z" stroke="#3a414a" stroke-width="3" fill="#3a414a"/><path d="M1041.5-60H1344a6 6 0 0 1 6 6v158.42a6 6 0 0 0 6 6h161.4M1041.54-60H1040" stroke="#3a414a" stroke-width="3" fill="none"/><path d="M1518.95 109.1l-.04.66v1l.03.65.04.5h-1.6v-2.96h1.6z" stroke="#3a414a" stroke-width=".05" fill="#3a414a"/><path d="M2043.2 110.42h360.85a6 6 0 0 1 6 6v121.46" stroke="#3a414a" stroke-width="3" fill="none"/><path d="M2043.24 111.9h-1.6v-.17l.05-.66v-.99l-.03-.64-.04-.5h1.6z" stroke="#3a414a" stroke-width=".05" fill="#3a414a"/><path d="M2410.05 253.65l-4.64-14.27h9.28z" stroke="#3a414a" stroke-width="3" fill="#3a414a"/><path d="M2043.2 319.98h74.78" stroke="#3a414a" stroke-width="3" fill="none"/><path d="M2043.24 321.45h-1.6v-.16l.05-.67v-.99l-.03-.65-.04-.5h1.6z" stroke="#3a414a" stroke-width=".05" fill="#3a414a"/><path d="M2133.74 319.98l-14.26 4.63v-9.26z" stroke="#3a414a" stroke-width="3" fill="#3a414a"/><path d="M1041.5-60H1344a6 6 0 0 1 6 6v367.98a6 6 0 0 0 6 6h161.4M1041.54-60H1040" stroke="#3a414a" stroke-width="3" fill="none"/><path d="M1518.95 318.66l-.04.66v.99l.03.66.04.5h-1.6v-2.96h1.6z" stroke="#3a414a" stroke-width=".05" fill="#3a414a"/><path d="M1041.5-60h232a6 6 0 0 0 6-6v-188a6 6 0 0 1 6-6h232M1041.54-60H1040" stroke="#3a414a" stroke-width="3" fill="none"/><path d="M1519.06-261.3l-.05.64v.99l.03.64.04.5h-1.6v-2.96h1.6z" stroke="#3a414a" stroke-width=".05" fill="#3a414a"/><path d="M1041.5-60h232.1a6 6 0 0 0 6-6v-118a6 6 0 0 1 6-6h1118.45a6 6 0 0 0 6-6v-1M1041.54-60H1040" stroke="#3a414a" stroke-width="3" fill="none"/><path d="M2410.04-198.5h1.5v1.54h-2.97v-1.57z" stroke="#3a414a" stroke-width=".05" fill="#3a414a"/><defs><path fill="#3a414a" d="M81-9v9H4v-9l26-5 81-224h33l83 224 30 5v9h-99v-9l31-5-23-68H73L49-14zm38-203L78-98h82" id="Z"/><path fill="#3a414a" d="M45-84c0 64 52 80 104 63 1 25-30 25-55 25-56 0-80-32-80-88 0-76 62-98 131-80v46h-10c-5-15-4-31-23-35-47-10-67 21-67 69" id="aa"/><path fill="#3a414a" d="M90-170c52 0 76 32 76 87 0 54-24 87-77 87-51 0-75-34-75-87 0-54 24-87 76-87zM89-10c39 0 46-35 46-73 0-39-7-73-46-73-39 1-44 34-44 73s6 72 44 73" id="ab"/><path fill="#3a414a" d="M124-13C89 8 26 15 26-45v-108c-8-3-24 2-21-12h50v118c-3 37 42 32 69 25v-131l-25-4v-8h54v153c8 3 24-2 21 12h-48" id="ac"/><path fill="#3a414a" d="M125-118c4-37-41-34-68-26v132l23 4v8H8C5-13 21-9 28-12v-141c-7-3-23 1-20-12h47l2 13c31-23 98-29 98 31v109c7 3 23-1 20 12h-72v-8l22-4v-106" id="ad"/><path fill="#3a414a" d="M54-38c-1 25 24 26 44 20v12C71 10 25 9 25-35v-115H4c-2-14 14-10 21-15l18-38h11v38h38v15H54v112" id="ae"/><g id="a"><use transform="matrix(0.08641975308641976,0,0,0.08641975308641976,0,0)" xlink:href="#Z"/><use transform="matrix(0.08641975308641976,0,0,0.08641975308641976,22.38271604938272,0)" xlink:href="#aa"/><use transform="matrix(0.08641975308641976,0,0,0.08641975308641976,36.12345679012346,0)" xlink:href="#aa"/><use transform="matrix(0.08641975308641976,0,0,0.08641975308641976,49.8641975308642,0)" xlink:href="#ab"/><use transform="matrix(0.08641975308641976,0,0,0.08641975308641976,65.41975308641976,0)" xlink:href="#ac"/><use transform="matrix(0.08641975308641976,0,0,0.08641975308641976,80.97530864197532,0)" xlink:href="#ad"/><use transform="matrix(0.08641975308641976,0,0,0.08641975308641976,96.53086419753087,0)" xlink:href="#ae"/></g><path fill="#3a414a" d="M199-173c-1 36-21 56-49 65l64 94 26 5v9h-57l-66-103H75v89l35 5v9H13v-9l28-5v-208l-31-4v-10c80 4 190-20 189 63zM75-119c50 2 89-1 89-51 0-49-39-52-89-50v101" id="af"/><path fill="#3a414a" d="M84-170c49 0 66 33 63 87H46c-8 60 38 80 95 63v10C128-2 108 4 88 4 34 4 14-29 14-84c-1-54 22-86 70-86zm33 73c12-57-57-82-69-24-1 7-2 15-2 24h71" id="ag"/><path fill="#3a414a" d="M126-118c4-37-42-32-68-25v131l24 4v8H8C5-13 21-9 28-12v-141c-7-3-23 1-20-12h48l1 13c22-15 77-30 92 2 32-22 104-36 104 29v109c8 3 24-2 21 12h-75v-8l25-4v-106c3-39-45-31-72-24 7 37 1 88 3 130l25 4v8h-78v-8l24-4v-106" id="ah"/><path fill="#3a414a" d="M13-81c0-71 46-101 114-85l-1-72-28-4v-8h57v238c8 3 24-2 21 12h-47l-2-12C80 23 13-1 13-81zm77-74c-37 1-44 33-45 74 0 38 9 66 45 66 14 0 27-3 36-7v-130c-10-1-24-3-36-3" id="ai"/><path fill="#3a414a" d="M32-163c41-10 102-14 102 39v112c8 3 24-2 21 12h-45l-4-17C83 13 3 13 13-46c-2-50 45-50 92-51 4-36-5-70-42-56-6 2-12 4-16 6-4 7 0 23-15 20v-36zM42-47c0 41 41 33 63 22v-59c-34 1-63-1-63 37" id="aj"/><path fill="#3a414a" d="M47-200c-23 0-25-39 0-38 13 0 18 7 20 19-1 11-8 19-20 19zM65-12l28 4v8H8v-8l28-4v-141l-24-4v-8h53v153" id="ak"/><g id="b"><use transform="matrix(0.08641975308641976,0,0,0.08641975308641976,0,0)" xlink:href="#af"/><use transform="matrix(0.08641975308641976,0,0,0.08641975308641976,20.740740740740744,0)" xlink:href="#ag"/><use transform="matrix(0.08641975308641976,0,0,0.08641975308641976,34.48148148148149,0)" xlink:href="#aa"/><use transform="matrix(0.08641975308641976,0,0,0.08641975308641976,48.22222222222223,0)" xlink:href="#ab"/><use transform="matrix(0.08641975308641976,0,0,0.08641975308641976,63.777777777777786,0)" xlink:href="#ah"/><use transform="matrix(0.08641975308641976,0,0,0.08641975308641976,87.97530864197532,0)" xlink:href="#ah"/><use transform="matrix(0.08641975308641976,0,0,0.08641975308641976,112.17283950617285,0)" xlink:href="#ag"/><use transform="matrix(0.08641975308641976,0,0,0.08641975308641976,125.9135802469136,0)" xlink:href="#ad"/><use transform="matrix(0.08641975308641976,0,0,0.08641975308641976,141.46913580246917,0)" xlink:href="#ai"/><use transform="matrix(0.08641975308641976,0,0,0.08641975308641976,157.0246913580247,0)" xlink:href="#aj"/><use transform="matrix(0.08641975308641976,0,0,0.08641975308641976,170.76543209876544,0)" xlink:href="#ae"/><use transform="matrix(0.08641975308641976,0,0,0.08641975308641976,179.40740740740742,0)" xlink:href="#ak"/><use transform="matrix(0.08641975308641976,0,0,0.08641975308641976,188.0493827160494,0)" xlink:href="#ab"/><use transform="matrix(0.08641975308641976,0,0,0.08641975308641976,203.60493827160496,0)" xlink:href="#ad"/></g><path fill="#3a414a" d="M178-68c0 79-95 82-154 59v-54h12c1 35 22 52 60 52 50 0 69-58 33-82-39-24-105-21-105-85 0-67 86-66 142-53v49h-12l-6-29c-31-27-121-7-89 42 28 43 119 24 119 101" id="al"/><path fill="#3a414a" d="M161-154L85 37C75 66 49 86 8 75V39c18-2 6 24 29 21 30-4 38-32 47-58L21-153c-7-3-20 0-17-12h77v8l-26 4 45 116 43-116-26-4v-8h62v8" id="am"/><path fill="#3a414a" d="M41-130c7 48 86 23 86 84 0 56-69 57-112 41v-40c20 0 9 29 31 31 35 19 77-26 41-50-27-18-72-13-72-59 0-50 58-52 100-41v36c-19 1-8-25-28-25-21-7-50-1-46 23" id="an"/><g id="c"><use transform="matrix(0.08641975308641976,0,0,0.08641975308641976,0,0)" xlink:href="#al"/><use transform="matrix(0.08641975308641976,0,0,0.08641975308641976,17.283950617283953,0)" xlink:href="#am"/><use transform="matrix(0.08641975308641976,0,0,0.08641975308641976,32.839506172839506,0)" xlink:href="#an"/><use transform="matrix(0.08641975308641976,0,0,0.08641975308641976,44.93827160493828,0)" xlink:href="#ae"/><use transform="matrix(0.08641975308641976,0,0,0.08641975308641976,53.58024691358024,0)" xlink:href="#ag"/><use transform="matrix(0.08641975308641976,0,0,0.08641975308641976,67.32098765432099,0)" xlink:href="#ah"/></g><path fill="#3a414a" d="M126-119c3-38-42-31-69-25v132l23 4v8H7v-8l21-4v-226l-24-4v-8h53l-1 98c31-22 99-31 99 31v109c7 3 23-1 20 12h-71v-8l22-4v-107" id="ao"/><path fill="#3a414a" d="M57-145c16-10 35-24 60-25v45c-19 1-8-30-40-17l-20 6v124l29 4v8H7v-8l21-4v-141c-8-3-24 2-21-12h48" id="ap"/><g id="d"><use transform="matrix(0.08641975308641976,0,0,0.08641975308641976,0,0)" xlink:href="#al"/><use transform="matrix(0.08641975308641976,0,0,0.08641975308641976,17.283950617283953,0)" xlink:href="#ao"/><use transform="matrix(0.08641975308641976,0,0,0.08641975308641976,32.839506172839506,0)" xlink:href="#ap"/><use transform="matrix(0.08641975308641976,0,0,0.08641975308641976,43.123456790123456,0)" xlink:href="#ak"/><use transform="matrix(0.08641975308641976,0,0,0.08641975308641976,51.76543209876543,0)" xlink:href="#ad"/><use transform="matrix(0.08641975308641976,0,0,0.08641975308641976,67.32098765432099,0)" xlink:href="#ag"/></g><path fill="#3a414a" d="M77-14l30 5v9H13v-9l30-5v-208l-30-4v-10h94v10l-30 4v208" id="aq"/><path fill="#3a414a" d="M103-236c-39-15-35 32-34 71h44v15H69v136l35 6v8H15v-8l25-6v-136H11v-9l29-7c-6-59 23-100 80-84v36c-15 2-12-14-17-22" id="ar"/><g id="e"><use transform="matrix(0.08641975308641976,0,0,0.08641975308641976,0,0)" xlink:href="#aq"/><use transform="matrix(0.08641975308641976,0,0,0.08641975308641976,10.283950617283951,0)" xlink:href="#ad"/><use transform="matrix(0.08641975308641976,0,0,0.08641975308641976,25.839506172839503,0)" xlink:href="#ar"/><use transform="matrix(0.08641975308641976,0,0,0.08641975308641976,36.123456790123456,0)" xlink:href="#ab"/><use transform="matrix(0.08641975308641976,0,0,0.08641975308641976,51.679012345679006,0)" xlink:href="#ap"/><use transform="matrix(0.08641975308641976,0,0,0.08641975308641976,61.96296296296296,0)" xlink:href="#ah"/><use transform="matrix(0.08641975308641976,0,0,0.08641975308641976,86.1604938271605,0)" xlink:href="#aj"/><use transform="matrix(0.08641975308641976,0,0,0.08641975308641976,99.90123456790124,0)" xlink:href="#ae"/><use transform="matrix(0.08641975308641976,0,0,0.08641975308641976,108.54320987654322,0)" xlink:href="#ak"/><use transform="matrix(0.08641975308641976,0,0,0.08641975308641976,117.18518518518519,0)" xlink:href="#ab"/><use transform="matrix(0.08641975308641976,0,0,0.08641975308641976,132.74074074074076,0)" xlink:href="#ad"/></g><path fill="#3a414a" d="M166-85c3 67-44 102-111 85l1 64 29 4v9H6v-9l21-4v-217c-7-3-22 1-19-12h46l1 9c11-8 26-14 45-14 47 2 64 36 66 85zM56-13c53 14 83-14 78-72 7-53-33-79-78-60v132" id="as"/><path fill="#3a414a" d="M65-12l28 4v8H7v-8l28-4v-226l-28-4v-8h58v238" id="at"/><g id="f"><use transform="matrix(0.08641975308641976,0,0,0.08641975308641976,0,0)" xlink:href="#Z"/><use transform="matrix(0.08641975308641976,0,0,0.08641975308641976,22.38271604938272,0)" xlink:href="#as"/><use transform="matrix(0.08641975308641976,0,0,0.08641975308641976,37.93827160493828,0)" xlink:href="#as"/><use transform="matrix(0.08641975308641976,0,0,0.08641975308641976,53.49382716049383,0)" xlink:href="#at"/><use transform="matrix(0.08641975308641976,0,0,0.08641975308641976,62.13580246913581,0)" xlink:href="#ak"/><use transform="matrix(0.08641975308641976,0,0,0.08641975308641976,70.77777777777779,0)" xlink:href="#aa"/><use transform="matrix(0.08641975308641976,0,0,0.08641975308641976,84.51851851851853,0)" xlink:href="#aj"/><use transform="matrix(0.08641975308641976,0,0,0.08641975308641976,98.2592592592593,0)" xlink:href="#ae"/><use transform="matrix(0.08641975308641976,0,0,0.08641975308641976,106.90123456790124,0)" xlink:href="#ak"/><use transform="matrix(0.08641975308641976,0,0,0.08641975308641976,115.54320987654322,0)" xlink:href="#ab"/><use transform="matrix(0.08641975308641976,0,0,0.08641975308641976,131.0987654320988,0)" xlink:href="#ad"/></g><path fill="#3a414a" d="M134-16c44-1 70-21 70-64v-142l-32-4v-10h80v10l-30 4v141c0 57-33 84-91 85-58 0-93-26-93-82v-144l-30-4v-10h94v10l-30 4c7 82-31 209 62 206" id="au"/><g id="g"><use transform="matrix(0.08641975308641976,0,0,0.08641975308641976,0,0)" xlink:href="#au"/><use transform="matrix(0.08641975308641976,0,0,0.08641975308641976,22.38271604938272,0)" xlink:href="#an"/><use transform="matrix(0.08641975308641976,0,0,0.08641975308641976,34.48148148148148,0)" xlink:href="#ag"/><use transform="matrix(0.08641975308641976,0,0,0.08641975308641976,48.222222222222214,0)" xlink:href="#ap"/></g><path d="M52-115c0 93 80 130 150 87l7-35h11l-1 55c-23 7-52 12-83 12C60 4 19-37 15-115c-5-113 97-141 201-114l1 51h-12l-5-30c-15-9-39-16-62-16-66 0-86 41-86 109" id="av"/><path d="M126-119c3-38-42-31-69-25v132l23 4v8H7v-8l21-4v-226l-24-4v-8h53l-1 98c31-22 99-31 99 31v109c7 3 23-1 20 12h-71v-8l22-4v-107" id="aw"/><path d="M84-170c49 0 66 33 63 87H46c-8 60 38 80 95 63v10C128-2 108 4 88 4 34 4 14-29 14-84c-1-54 22-86 70-86zm33 73c12-57-57-82-69-24-1 7-2 15-2 24h71" id="ax"/><path d="M45-84c0 64 52 80 104 63 1 25-30 25-55 25-56 0-80-32-80-88 0-76 62-98 131-80v46h-10c-5-15-4-31-23-35-47-10-67 21-67 69" id="ay"/><path d="M60-80l68-73c-7-3-20 0-17-12h58c3 13-13 9-20 12l-47 48 60 93c7 3 21-1 18 12h-68c-3-12 9-9 15-12L82-83 60-60v48c7 3 21-1 18 12H10v-8l21-4v-226l-24-4v-8h53v170" id="az"/><g id="h"><use transform="matrix(0.08641975308641976,0,0,0.08641975308641976,0,0)" xlink:href="#av"/><use transform="matrix(0.08641975308641976,0,0,0.08641975308641976,20.740740740740744,0)" xlink:href="#aw"/><use transform="matrix(0.08641975308641976,0,0,0.08641975308641976,36.296296296296305,0)" xlink:href="#ax"/><use transform="matrix(0.08641975308641976,0,0,0.08641975308641976,50.037037037037045,0)" xlink:href="#ay"/><use transform="matrix(0.08641975308641976,0,0,0.08641975308641976,63.777777777777786,0)" xlink:href="#az"/></g><path d="M81-9v9H4v-9l26-5 81-224h33l83 224 30 5v9h-99v-9l31-5-23-68H73L49-14zm38-203L78-98h82" id="aA"/><path d="M47-200c-23 0-25-39 0-38 13 0 18 7 20 19-1 11-8 19-20 19zM65-12l28 4v8H8v-8l28-4v-141l-24-4v-8h53v153" id="aB"/><path d="M164-154L98 4H85L17-153c-7-3-20 0-17-12h77v8l-26 4L99-38l46-115-26-4v-8h61v8" id="aC"/><path d="M126-118c4-37-42-32-68-25v131l24 4v8H8C5-13 21-9 28-12v-141c-7-3-23 1-20-12h48l1 13c22-15 77-30 92 2 32-22 104-36 104 29v109c8 3 24-2 21 12h-75v-8l25-4v-106c3-39-45-31-72-24 7 37 1 88 3 130l25 4v8h-78v-8l24-4v-106" id="aD"/><path d="M125-118c4-37-41-34-68-26v132l23 4v8H8C5-13 21-9 28-12v-141c-7-3-23 1-20-12h47l2 13c31-23 98-29 98 31v109c7 3 23-1 20 12h-72v-8l22-4v-106" id="aE"/><path d="M54-38c-1 25 24 26 44 20v12C71 10 25 9 25-35v-115H4c-2-14 14-10 21-15l18-38h11v38h38v15H54v112" id="aF"/><path d="M41-130c7 48 86 23 86 84 0 56-69 57-112 41v-40c20 0 9 29 31 31 35 19 77-26 41-50-27-18-72-13-72-59 0-50 58-52 100-41v36c-19 1-8-25-28-25-21-7-50-1-46 23" id="aG"/><g id="i"><use transform="matrix(0.08641975308641976,0,0,0.08641975308641976,0,0)" xlink:href="#aA"/><use transform="matrix(0.08641975308641976,0,0,0.08641975308641976,22.38271604938272,0)" xlink:href="#ay"/><use transform="matrix(0.08641975308641976,0,0,0.08641975308641976,36.12345679012346,0)" xlink:href="#aw"/><use transform="matrix(0.08641975308641976,0,0,0.08641975308641976,51.67901234567902,0)" xlink:href="#aB"/><use transform="matrix(0.08641975308641976,0,0,0.08641975308641976,60.320987654320994,0)" xlink:href="#ax"/><use transform="matrix(0.08641975308641976,0,0,0.08641975308641976,74.06172839506173,0)" xlink:href="#aC"/><use transform="matrix(0.08641975308641976,0,0,0.08641975308641976,89.61728395061729,0)" xlink:href="#ax"/><use transform="matrix(0.08641975308641976,0,0,0.08641975308641976,103.35802469135804,0)" xlink:href="#aD"/><use transform="matrix(0.08641975308641976,0,0,0.08641975308641976,127.55555555555557,0)" xlink:href="#ax"/><use transform="matrix(0.08641975308641976,0,0,0.08641975308641976,141.2962962962963,0)" xlink:href="#aE"/><use transform="matrix(0.08641975308641976,0,0,0.08641975308641976,156.85185185185185,0)" xlink:href="#aF"/><use transform="matrix(0.08641975308641976,0,0,0.08641975308641976,165.49382716049382,0)" xlink:href="#aG"/></g><path d="M57-145c16-10 35-24 60-25v45c-19 1-8-30-40-17l-20 6v124l29 4v8H7v-8l21-4v-141c-8-3-24 2-21-12h48" id="aH"/><path d="M90-170c52 0 76 32 76 87 0 54-24 87-77 87-51 0-75-34-75-87 0-54 24-87 76-87zM89-10c39 0 46-35 46-73 0-39-7-73-46-73-39 1-44 34-44 73s6 72 44 73" id="aI"/><path d="M240-154L185 4h-14l-41-109L90 4H77L20-153c-7-3-23 1-20-12h79v8l-27 4L91-41l40-108h14l40 109 38-113-28-4v-8h63v8" id="aJ"/><path d="M13-81c0-71 46-101 114-85l-1-72-28-4v-8h57v238c8 3 24-2 21 12h-47l-2-12C80 23 13-1 13-81zm77-74c-37 1-44 33-45 74 0 38 9 66 45 66 14 0 27-3 36-7v-130c-10-1-24-3-36-3" id="aK"/><g id="j"><use transform="matrix(0.08641975308641976,0,0,0.08641975308641976,0,0)" xlink:href="#av"/><use transform="matrix(0.08641975308641976,0,0,0.08641975308641976,20.740740740740744,0)" xlink:href="#aH"/><use transform="matrix(0.08641975308641976,0,0,0.08641975308641976,31.024691358024693,0)" xlink:href="#aI"/><use transform="matrix(0.08641975308641976,0,0,0.08641975308641976,46.580246913580254,0)" xlink:href="#aJ"/><use transform="matrix(0.08641975308641976,0,0,0.08641975308641976,68.96296296296298,0)" xlink:href="#aK"/><use transform="matrix(0.08641975308641976,0,0,0.08641975308641976,84.51851851851853,0)" xlink:href="#ax"/><use transform="matrix(0.08641975308641976,0,0,0.08641975308641976,98.2592592592593,0)" xlink:href="#aK"/><use transform="matrix(0.08641975308641976,0,0,0.08641975308641976,113.81481481481485,0)" xlink:href="#aE"/><use transform="matrix(0.08641975308641976,0,0,0.08641975308641976,129.37037037037038,0)" xlink:href="#ax"/><use transform="matrix(0.08641975308641976,0,0,0.08641975308641976,143.11111111111111,0)" xlink:href="#aG"/><use transform="matrix(0.08641975308641976,0,0,0.08641975308641976,155.20987654320987,0)" xlink:href="#aG"/></g><path d="M32-163c41-10 102-14 102 39v112c8 3 24-2 21 12h-45l-4-17C83 13 3 13 13-46c-2-50 45-50 92-51 4-36-5-70-42-56-6 2-12 4-16 6-4 7 0 23-15 20v-36zM42-47c0 41 41 33 63 22v-59c-34 1-63-1-63 37" id="aL"/><path d="M124-13C89 8 26 15 26-45v-108c-8-3-24 2-21-12h50v118c-3 37 42 32 69 25v-131l-25-4v-8h54v153c8 3 24-2 21 12h-48" id="aM"/><g id="k"><use transform="matrix(0.08641975308641976,0,0,0.08641975308641976,0,0)" xlink:href="#aL"/><use transform="matrix(0.08641975308641976,0,0,0.08641975308641976,13.740740740740742,0)" xlink:href="#aH"/><use transform="matrix(0.08641975308641976,0,0,0.08641975308641976,24.024691358024693,0)" xlink:href="#aI"/><use transform="matrix(0.08641975308641976,0,0,0.08641975308641976,39.580246913580254,0)" xlink:href="#aM"/><use transform="matrix(0.08641975308641976,0,0,0.08641975308641976,55.13580246913581,0)" xlink:href="#aE"/><use transform="matrix(0.08641975308641976,0,0,0.08641975308641976,70.69135802469137,0)" xlink:href="#aK"/></g><path d="M178-68c0 79-95 82-154 59v-54h12c1 35 22 52 60 52 50 0 69-58 33-82-39-24-105-21-105-85 0-67 86-66 142-53v49h-12l-6-29c-31-27-121-7-89 42 28 43 119 24 119 101" id="aN"/><g id="l"><use transform="matrix(0.08641975308641976,0,0,0.08641975308641976,0,0)" xlink:href="#aN"/><use transform="matrix(0.08641975308641976,0,0,0.08641975308641976,17.283950617283953,0)" xlink:href="#aw"/><use transform="matrix(0.08641975308641976,0,0,0.08641975308641976,32.839506172839506,0)" xlink:href="#aH"/><use transform="matrix(0.08641975308641976,0,0,0.08641975308641976,43.123456790123456,0)" xlink:href="#aB"/><use transform="matrix(0.08641975308641976,0,0,0.08641975308641976,51.76543209876543,0)" xlink:href="#aE"/><use transform="matrix(0.08641975308641976,0,0,0.08641975308641976,67.32098765432099,0)" xlink:href="#ax"/><use transform="matrix(0.08641975308641976,0,0,0.08641975308641976,81.06172839506173,0)" xlink:href="#aG"/></g><path d="M141-152c28 39 5 97-54 97-9 0-20-2-27-3L49-35c29 22 130-14 124 52-4 45-38 57-88 61C21 83-8 26 45-2 33-6 22-15 21-31l28-31c-19-9-28-26-28-51-2-51 53-65 100-52l38-20 7 8zM85 64c35 0 61-11 61-42 0-35-57-17-89-21-9 8-16 19-17 34 0 25 19 29 45 29zM52-113c1 26 7 46 35 44 28-1 34-16 35-44 0-26-6-43-34-43s-36 17-36 43" id="aO"/><g id="m"><use transform="matrix(0.08641975308641976,0,0,0.08641975308641976,0,0)" xlink:href="#aN"/><use transform="matrix(0.08641975308641976,0,0,0.08641975308641976,17.283950617283953,0)" xlink:href="#aB"/><use transform="matrix(0.08641975308641976,0,0,0.08641975308641976,25.925925925925927,0)" xlink:href="#aO"/><use transform="matrix(0.08641975308641976,0,0,0.08641975308641976,41.48148148148149,0)" xlink:href="#aE"/></g><path d="M166-85c3 67-44 102-111 85l1 64 29 4v9H6v-9l21-4v-217c-7-3-22 1-19-12h46l1 9c11-8 26-14 45-14 47 2 64 36 66 85zM56-13c53 14 83-14 78-72 7-53-33-79-78-60v132" id="aP"/><g id="n"><use transform="matrix(0.08641975308641976,0,0,0.08641975308641976,0,0)" xlink:href="#aM"/><use transform="matrix(0.08641975308641976,0,0,0.08641975308641976,15.555555555555557,0)" xlink:href="#aP"/></g><g id="o"><use transform="matrix(0.08641975308641976,0,0,0.08641975308641976,0,0)" xlink:href="#aI"/><use transform="matrix(0.08641975308641976,0,0,0.08641975308641976,15.555555555555557,0)" xlink:href="#aE"/></g><g id="p"><use transform="matrix(0.08641975308641976,0,0,0.08641975308641976,0,0)" xlink:href="#aI"/><use transform="matrix(0.08641975308641976,0,0,0.08641975308641976,15.555555555555557,0)" xlink:href="#aF"/><use transform="matrix(0.08641975308641976,0,0,0.08641975308641976,24.19753086419753,0)" xlink:href="#aw"/><use transform="matrix(0.08641975308641976,0,0,0.08641975308641976,39.75308641975309,0)" xlink:href="#ax"/><use transform="matrix(0.08641975308641976,0,0,0.08641975308641976,53.49382716049383,0)" xlink:href="#aH"/></g><path d="M15-236h35l-11 85H26" id="aQ"/><g id="q"><use transform="matrix(0.08641975308641976,0,0,0.08641975308641976,0,0)" xlink:href="#aM"/><use transform="matrix(0.08641975308641976,0,0,0.08641975308641976,15.555555555555557,0)" xlink:href="#aG"/><use transform="matrix(0.08641975308641976,0,0,0.08641975308641976,27.654320987654323,0)" xlink:href="#ax"/><use transform="matrix(0.08641975308641976,0,0,0.08641975308641976,41.39506172839506,0)" xlink:href="#aH"/><use transform="matrix(0.08641975308641976,0,0,0.08641975308641976,51.679012345679006,0)" xlink:href="#aQ"/><use transform="matrix(0.08641975308641976,0,0,0.08641975308641976,57.20987654320988,0)" xlink:href="#aG"/></g><g id="r"><use transform="matrix(0.08641975308641976,0,0,0.08641975308641976,0,0)" xlink:href="#ay"/><use transform="matrix(0.08641975308641976,0,0,0.08641975308641976,13.740740740740742,0)" xlink:href="#aI"/><use transform="matrix(0.08641975308641976,0,0,0.08641975308641976,29.296296296296298,0)" xlink:href="#aD"/><use transform="matrix(0.08641975308641976,0,0,0.08641975308641976,53.49382716049383,0)" xlink:href="#aD"/><use transform="matrix(0.08641975308641976,0,0,0.08641975308641976,77.69135802469137,0)" xlink:href="#ax"/><use transform="matrix(0.08641975308641976,0,0,0.08641975308641976,91.4320987654321,0)" xlink:href="#aE"/><use transform="matrix(0.08641975308641976,0,0,0.08641975308641976,106.98765432098766,0)" xlink:href="#aF"/></g><path d="M103-236c-39-15-35 32-34 71h44v15H69v136l35 6v8H15v-8l25-6v-136H11v-9l29-7c-6-59 23-100 80-84v36c-15 2-12-14-17-22" id="aR"/><g id="s"><use transform="matrix(0.08641975308641976,0,0,0.08641975308641976,0,0)" xlink:href="#aI"/><use transform="matrix(0.08641975308641976,0,0,0.08641975308641976,15.555555555555557,0)" xlink:href="#aR"/></g><use transform="matrix(0.08641975308641976,0,0,0.08641975308641976,0,0)" xlink:href="#aL" id="t"/><g id="u"><use transform="matrix(0.08641975308641976,0,0,0.08641975308641976,0,0)" xlink:href="#aN"/><use transform="matrix(0.08641975308641976,0,0,0.08641975308641976,17.283950617283953,0)" xlink:href="#aw"/><use transform="matrix(0.08641975308641976,0,0,0.08641975308641976,32.839506172839506,0)" xlink:href="#aH"/><use transform="matrix(0.08641975308641976,0,0,0.08641975308641976,43.123456790123456,0)" xlink:href="#aB"/><use transform="matrix(0.08641975308641976,0,0,0.08641975308641976,51.76543209876543,0)" xlink:href="#aE"/><use transform="matrix(0.08641975308641976,0,0,0.08641975308641976,67.32098765432099,0)" xlink:href="#ax"/></g><path d="M77-14l30 5v9H13v-9l30-5v-208l-30-4v-10h94v10l-30 4v208" id="aS"/><g id="v"><use transform="matrix(0.08641975308641976,0,0,0.08641975308641976,0,0)" xlink:href="#aS"/><use transform="matrix(0.08641975308641976,0,0,0.08641975308641976,10.283950617283951,0)" xlink:href="#aE"/><use transform="matrix(0.08641975308641976,0,0,0.08641975308641976,25.839506172839503,0)" xlink:href="#aR"/><use transform="matrix(0.08641975308641976,0,0,0.08641975308641976,36.123456790123456,0)" xlink:href="#aI"/><use transform="matrix(0.08641975308641976,0,0,0.08641975308641976,51.679012345679006,0)" xlink:href="#aH"/><use transform="matrix(0.08641975308641976,0,0,0.08641975308641976,61.96296296296296,0)" xlink:href="#aD"/><use transform="matrix(0.08641975308641976,0,0,0.08641975308641976,86.1604938271605,0)" xlink:href="#aL"/><use transform="matrix(0.08641975308641976,0,0,0.08641975308641976,99.90123456790124,0)" xlink:href="#aF"/><use transform="matrix(0.08641975308641976,0,0,0.08641975308641976,108.54320987654322,0)" xlink:href="#aB"/><use transform="matrix(0.08641975308641976,0,0,0.08641975308641976,117.18518518518519,0)" xlink:href="#aI"/><use transform="matrix(0.08641975308641976,0,0,0.08641975308641976,132.74074074074076,0)" xlink:href="#aE"/></g><path d="M111-226l-36 4v207c33-1 73 2 101-4l11-49h11l-3 68H10v-9l31-5v-208l-31-4v-10h101v10" id="aT"/><g id="w"><use transform="matrix(0.08641975308641976,0,0,0.08641975308641976,0,0)" xlink:href="#aT"/><use transform="matrix(0.08641975308641976,0,0,0.08641975308641976,18.925925925925927,0)" xlink:href="#ax"/><use transform="matrix(0.08641975308641976,0,0,0.08641975308641976,32.66666666666667,0)" xlink:href="#aL"/><use transform="matrix(0.08641975308641976,0,0,0.08641975308641976,46.40740740740741,0)" xlink:href="#aC"/><use transform="matrix(0.08641975308641976,0,0,0.08641975308641976,61.96296296296297,0)" xlink:href="#ax"/></g><g id="x"><use transform="matrix(0.08641975308641976,0,0,0.08641975308641976,0,0)" xlink:href="#aH"/><use transform="matrix(0.08641975308641976,0,0,0.08641975308641976,10.283950617283951,0)" xlink:href="#aL"/><use transform="matrix(0.08641975308641976,0,0,0.08641975308641976,24.024691358024693,0)" xlink:href="#aF"/><use transform="matrix(0.08641975308641976,0,0,0.08641975308641976,32.66666666666667,0)" xlink:href="#aB"/><use transform="matrix(0.08641975308641976,0,0,0.08641975308641976,41.308641975308646,0)" xlink:href="#aE"/><use transform="matrix(0.08641975308641976,0,0,0.08641975308641976,56.8641975308642,0)" xlink:href="#aO"/></g><path d="M18 4H0l83-241h17" id="aU"/><use transform="matrix(0.08641975308641976,0,0,0.08641975308641976,0,0)" xlink:href="#aU" id="y"/><g id="z"><use transform="matrix(0.08641975308641976,0,0,0.08641975308641976,0,0)" xlink:href="#aI"/><use transform="matrix(0.08641975308641976,0,0,0.08641975308641976,15.555555555555557,0)" xlink:href="#aE"/></g><g id="A"><use transform="matrix(0.08641975308641976,0,0,0.08641975308641976,0,0)" xlink:href="#aT"/><use transform="matrix(0.08641975308641976,0,0,0.08641975308641976,18.925925925925927,0)" xlink:href="#aI"/><use transform="matrix(0.08641975308641976,0,0,0.08641975308641976,34.48148148148148,0)" xlink:href="#aI"/><use transform="matrix(0.08641975308641976,0,0,0.08641975308641976,50.037037037037045,0)" xlink:href="#az"/></g><g id="B"><use transform="matrix(0.08641975308641976,0,0,0.08641975308641976,0,0)" xlink:href="#aM"/><use transform="matrix(0.08641975308641976,0,0,0.08641975308641976,15.555555555555557,0)" xlink:href="#aP"/></g><g id="C"><use transform="matrix(0.08641975308641976,0,0,0.08641975308641976,0,0)" xlink:href="#aN"/><use transform="matrix(0.08641975308641976,0,0,0.08641975308641976,17.283950617283953,0)" xlink:href="#aw"/><use transform="matrix(0.08641975308641976,0,0,0.08641975308641976,32.839506172839506,0)" xlink:href="#aH"/><use transform="matrix(0.08641975308641976,0,0,0.08641975308641976,43.123456790123456,0)" xlink:href="#aB"/><use transform="matrix(0.08641975308641976,0,0,0.08641975308641976,51.76543209876543,0)" xlink:href="#aE"/><use transform="matrix(0.08641975308641976,0,0,0.08641975308641976,67.32098765432099,0)" xlink:href="#ax"/><use transform="matrix(0.08641975308641976,0,0,0.08641975308641976,81.06172839506173,0)" xlink:href="#aG"/></g><path d="M53-14c58 12 82-15 82-73 0-52-35-77-82-58v131zM89 4C64 4 42-2 24-9v-229l-24-4v-8h53l-1 94c48-33 114-4 114 69 0 57-23 91-77 91" id="aV"/><path d="M161-154L85 37C75 66 49 86 8 75V39c18-2 6 24 29 21 30-4 38-32 47-58L21-153c-7-3-20 0-17-12h77v8l-26 4 45 116 43-116-26-4v-8h62v8" id="aW"/><g id="D"><use transform="matrix(0.08641975308641976,0,0,0.08641975308641976,0,0)" xlink:href="#aV"/><use transform="matrix(0.08641975308641976,0,0,0.08641975308641976,15.555555555555557,0)" xlink:href="#aW"/></g><g id="E"><use transform="matrix(0.08641975308641976,0,0,0.08641975308641976,0,0)" xlink:href="#aE"/><use transform="matrix(0.08641975308641976,0,0,0.08641975308641976,15.555555555555557,0)" xlink:href="#aL"/><use transform="matrix(0.08641975308641976,0,0,0.08641975308641976,29.296296296296298,0)" xlink:href="#aD"/><use transform="matrix(0.08641975308641976,0,0,0.08641975308641976,53.49382716049383,0)" xlink:href="#ax"/></g><g id="F"><use transform="matrix(0.08641975308641976,0,0,0.08641975308641976,0,0)" xlink:href="#aI"/><use transform="matrix(0.08641975308641976,0,0,0.08641975308641976,15.555555555555557,0)" xlink:href="#aH"/></g><g id="G"><use transform="matrix(0.08641975308641976,0,0,0.08641975308641976,0,0)" xlink:href="#ay"/><use transform="matrix(0.08641975308641976,0,0,0.08641975308641976,13.740740740740742,0)" xlink:href="#aL"/><use transform="matrix(0.08641975308641976,0,0,0.08641975308641976,27.481481481481485,0)" xlink:href="#aF"/><use transform="matrix(0.08641975308641976,0,0,0.08641975308641976,36.12345679012346,0)" xlink:href="#ax"/><use transform="matrix(0.08641975308641976,0,0,0.08641975308641976,49.8641975308642,0)" xlink:href="#aO"/><use transform="matrix(0.08641975308641976,0,0,0.08641975308641976,65.41975308641976,0)" xlink:href="#aI"/><use transform="matrix(0.08641975308641976,0,0,0.08641975308641976,80.97530864197532,0)" xlink:href="#aH"/><use transform="matrix(0.08641975308641976,0,0,0.08641975308641976,91.25925925925927,0)" xlink:href="#aB"/><use transform="matrix(0.08641975308641976,0,0,0.08641975308641976,99.90123456790124,0)" xlink:href="#ax"/><use transform="matrix(0.08641975308641976,0,0,0.08641975308641976,113.64197530864199,0)" xlink:href="#aG"/></g><path d="M203-222l-32-4v-10h81v10l-31 4V0h-17L59-212v198l32 5v9H10v-9l31-5v-208l-31-4v-10h72L203-61v-161" id="aX"/><g id="H"><use transform="matrix(0.08641975308641976,0,0,0.08641975308641976,0,0)" xlink:href="#aX"/><use transform="matrix(0.08641975308641976,0,0,0.08641975308641976,22.38271604938272,0)" xlink:href="#ax"/><use transform="matrix(0.08641975308641976,0,0,0.08641975308641976,36.12345679012346,0)" xlink:href="#aL"/><use transform="matrix(0.08641975308641976,0,0,0.08641975308641976,49.8641975308642,0)" xlink:href="#aH"/><use transform="matrix(0.08641975308641976,0,0,0.08641975308641976,60.14814814814815,0)" xlink:href="#aV"/><use transform="matrix(0.08641975308641976,0,0,0.08641975308641976,75.70370370370371,0)" xlink:href="#aW"/></g><path d="M199-173c-1 36-21 56-49 65l64 94 26 5v9h-57l-66-103H75v89l35 5v9H13v-9l28-5v-208l-31-4v-10c80 4 190-20 189 63zM75-119c50 2 89-1 89-51 0-49-39-52-89-50v101" id="aY"/><path d="M13-82c-2-68 46-101 114-84 8-3 15-8 28-7V64l18 4v9h-70v-9l23-4c1-25-2-53 2-75-11 8-27 15-47 15-49-1-66-35-68-86zm113-70c-53-13-86 12-81 70-6 54 34 80 81 61v-131" id="aZ"/><g id="I"><use transform="matrix(0.08641975308641976,0,0,0.08641975308641976,0,0)" xlink:href="#aY"/><use transform="matrix(0.08641975308641976,0,0,0.08641975308641976,20.740740740740744,0)" xlink:href="#ax"/><use transform="matrix(0.08641975308641976,0,0,0.08641975308641976,34.48148148148149,0)" xlink:href="#aZ"/><use transform="matrix(0.08641975308641976,0,0,0.08641975308641976,50.037037037037045,0)" xlink:href="#aM"/><use transform="matrix(0.08641975308641976,0,0,0.08641975308641976,65.59259259259261,0)" xlink:href="#ax"/><use transform="matrix(0.08641975308641976,0,0,0.08641975308641976,79.33333333333336,0)" xlink:href="#aG"/><use transform="matrix(0.08641975308641976,0,0,0.08641975308641976,91.43209876543213,0)" xlink:href="#aF"/></g><g id="J"><use transform="matrix(0.08641975308641976,0,0,0.08641975308641976,0,0)" xlink:href="#aR"/><use transform="matrix(0.08641975308641976,0,0,0.08641975308641976,10.283950617283951,0)" xlink:href="#aI"/><use transform="matrix(0.08641975308641976,0,0,0.08641975308641976,25.839506172839503,0)" xlink:href="#aH"/></g><g id="K"><use transform="matrix(0.08641975308641976,0,0,0.08641975308641976,0,0)" xlink:href="#aN"/><use transform="matrix(0.08641975308641976,0,0,0.08641975308641976,17.283950617283953,0)" xlink:href="#aw"/><use transform="matrix(0.08641975308641976,0,0,0.08641975308641976,32.839506172839506,0)" xlink:href="#aH"/><use transform="matrix(0.08641975308641976,0,0,0.08641975308641976,43.123456790123456,0)" xlink:href="#aB"/><use transform="matrix(0.08641975308641976,0,0,0.08641975308641976,51.76543209876543,0)" xlink:href="#aE"/><use transform="matrix(0.08641975308641976,0,0,0.08641975308641976,67.32098765432099,0)" xlink:href="#ax"/></g><g id="L"><use transform="matrix(0.08641975308641976,0,0,0.08641975308641976,0,0)" xlink:href="#aw"/><use transform="matrix(0.08641975308641976,0,0,0.08641975308641976,15.555555555555557,0)" xlink:href="#aI"/><use transform="matrix(0.08641975308641976,0,0,0.08641975308641976,31.111111111111114,0)" xlink:href="#aP"/><use transform="matrix(0.08641975308641976,0,0,0.08641975308641976,46.66666666666667,0)" xlink:href="#aP"/><use transform="matrix(0.08641975308641976,0,0,0.08641975308641976,62.22222222222223,0)" xlink:href="#aB"/><use transform="matrix(0.08641975308641976,0,0,0.08641975308641976,70.8641975308642,0)" xlink:href="#aE"/><use transform="matrix(0.08641975308641976,0,0,0.08641975308641976,86.41975308641976,0)" xlink:href="#aO"/></g><g id="M"><use transform="matrix(0.08641975308641976,0,0,0.08641975308641976,0,0)" xlink:href="#aH"/><use transform="matrix(0.08641975308641976,0,0,0.08641975308641976,10.283950617283951,0)" xlink:href="#aI"/><use transform="matrix(0.08641975308641976,0,0,0.08641975308641976,25.839506172839503,0)" xlink:href="#aM"/><use transform="matrix(0.08641975308641976,0,0,0.08641975308641976,41.39506172839506,0)" xlink:href="#aF"/><use transform="matrix(0.08641975308641976,0,0,0.08641975308641976,50.037037037037045,0)" xlink:href="#ax"/></g><g id="N"><use transform="matrix(0.08641975308641976,0,0,0.08641975308641976,0,0)" xlink:href="#aT"/><use transform="matrix(0.08641975308641976,0,0,0.08641975308641976,18.925925925925927,0)" xlink:href="#aI"/><use transform="matrix(0.08641975308641976,0,0,0.08641975308641976,34.48148148148148,0)" xlink:href="#aO"/></g><g id="O"><use transform="matrix(0.08641975308641976,0,0,0.08641975308641976,0,0)" xlink:href="#aB"/><use transform="matrix(0.08641975308641976,0,0,0.08641975308641976,8.641975308641976,0)" xlink:href="#aE"/></g><g id="P"><use transform="matrix(0.08641975308641976,0,0,0.08641975308641976,0,0)" xlink:href="#aT"/><use transform="matrix(0.08641975308641976,0,0,0.08641975308641976,18.925925925925927,0)" xlink:href="#aI"/><use transform="matrix(0.08641975308641976,0,0,0.08641975308641976,34.48148148148148,0)" xlink:href="#aO"/></g><g id="Q"><use transform="matrix(0.08641975308641976,0,0,0.08641975308641976,0,0)" xlink:href="#aI"/><use transform="matrix(0.08641975308641976,0,0,0.08641975308641976,15.555555555555557,0)" xlink:href="#aM"/><use transform="matrix(0.08641975308641976,0,0,0.08641975308641976,31.111111111111114,0)" xlink:href="#aF"/></g><path d="M75-17c87 13 134-18 134-103 0-78-51-106-134-100v203zm171-102C246 5 139 7 10 0v-9l31-5v-208l-31-4v-10h107c82 0 129 35 129 117" id="ba"/><path d="M65-12l28 4v8H7v-8l28-4v-226l-28-4v-8h58v238" id="bb"/><g id="R"><use transform="matrix(0.08641975308641976,0,0,0.08641975308641976,0,0)" xlink:href="#ba"/><use transform="matrix(0.08641975308641976,0,0,0.08641975308641976,22.38271604938272,0)" xlink:href="#ax"/><use transform="matrix(0.08641975308641976,0,0,0.08641975308641976,36.12345679012346,0)" xlink:href="#bb"/><use transform="matrix(0.08641975308641976,0,0,0.08641975308641976,44.76543209876544,0)" xlink:href="#ax"/><use transform="matrix(0.08641975308641976,0,0,0.08641975308641976,58.50617283950618,0)" xlink:href="#aF"/><use transform="matrix(0.08641975308641976,0,0,0.08641975308641976,67.14814814814815,0)" xlink:href="#ax"/></g><g id="S"><use transform="matrix(0.08641975308641976,0,0,0.08641975308641976,0,0)" xlink:href="#aA"/><use transform="matrix(0.08641975308641976,0,0,0.08641975308641976,22.38271604938272,0)" xlink:href="#ay"/><use transform="matrix(0.08641975308641976,0,0,0.08641975308641976,36.12345679012346,0)" xlink:href="#ay"/><use transform="matrix(0.08641975308641976,0,0,0.08641975308641976,49.8641975308642,0)" xlink:href="#aI"/><use transform="matrix(0.08641975308641976,0,0,0.08641975308641976,65.41975308641976,0)" xlink:href="#aM"/><use transform="matrix(0.08641975308641976,0,0,0.08641975308641976,80.97530864197532,0)" xlink:href="#aE"/><use transform="matrix(0.08641975308641976,0,0,0.08641975308641976,96.53086419753087,0)" xlink:href="#aF"/></g><path d="M152 0h-7L59-203v189l32 5v9H10v-9l31-5v-208l-31-4v-10h72l76 180 84-180h68v10l-31 4v208l31 5v9h-96v-9l32-5v-189" id="bc"/><g id="T"><use transform="matrix(0.08641975308641976,0,0,0.08641975308641976,0,0)" xlink:href="#bc"/><use transform="matrix(0.08641975308641976,0,0,0.08641975308641976,27.654320987654323,0)" xlink:href="#aL"/><use transform="matrix(0.08641975308641976,0,0,0.08641975308641976,41.39506172839506,0)" xlink:href="#aH"/><use transform="matrix(0.08641975308641976,0,0,0.08641975308641976,51.679012345679006,0)" xlink:href="#az"/></g><g id="U"><use transform="matrix(0.08641975308641976,0,0,0.08641975308641976,0,0)" xlink:href="#aR"/><use transform="matrix(0.08641975308641976,0,0,0.08641975308641976,10.283950617283951,0)" xlink:href="#aL"/><use transform="matrix(0.08641975308641976,0,0,0.08641975308641976,24.024691358024693,0)" xlink:href="#aC"/><use transform="matrix(0.08641975308641976,0,0,0.08641975308641976,39.580246913580254,0)" xlink:href="#aI"/><use transform="matrix(0.08641975308641976,0,0,0.08641975308641976,55.13580246913581,0)" xlink:href="#aH"/><use transform="matrix(0.08641975308641976,0,0,0.08641975308641976,65.41975308641976,0)" xlink:href="#aB"/><use transform="matrix(0.08641975308641976,0,0,0.08641975308641976,74.06172839506173,0)" xlink:href="#aF"/><use transform="matrix(0.08641975308641976,0,0,0.08641975308641976,82.70370370370371,0)" xlink:href="#ax"/></g><g id="V"><use transform="matrix(0.08641975308641976,0,0,0.08641975308641976,0,0)" xlink:href="#aC"/><use transform="matrix(0.08641975308641976,0,0,0.08641975308641976,15.555555555555557,0)" xlink:href="#aB"/><use transform="matrix(0.08641975308641976,0,0,0.08641975308641976,24.19753086419753,0)" xlink:href="#aG"/><use transform="matrix(0.08641975308641976,0,0,0.08641975308641976,36.2962962962963,0)" xlink:href="#aB"/><use transform="matrix(0.08641975308641976,0,0,0.08641975308641976,44.93827160493828,0)" xlink:href="#aF"/><use transform="matrix(0.08641975308641976,0,0,0.08641975308641976,53.58024691358024,0)" xlink:href="#ax"/><use transform="matrix(0.08641975308641976,0,0,0.08641975308641976,67.32098765432099,0)" xlink:href="#aK"/></g><g id="W"><use transform="matrix(0.08641975308641976,0,0,0.08641975308641976,0,0)" xlink:href="#aR"/><use transform="matrix(0.08641975308641976,0,0,0.08641975308641976,10.283950617283951,0)" xlink:href="#aI"/><use transform="matrix(0.08641975308641976,0,0,0.08641975308641976,25.839506172839503,0)" xlink:href="#aH"/></g><use transform="matrix(0.08641975308641976,0,0,0.08641975308641976,0,0)" xlink:href="#aL" id="X"/><g id="Y"><use transform="matrix(0.08641975308641976,0,0,0.08641975308641976,0,0)" xlink:href="#aC"/><use transform="matrix(0.08641975308641976,0,0,0.08641975308641976,15.555555555555557,0)" xlink:href="#aB"/><use transform="matrix(0.08641975308641976,0,0,0.08641975308641976,24.19753086419753,0)" xlink:href="#aG"/><use transform="matrix(0.08641975308641976,0,0,0.08641975308641976,36.2962962962963,0)" xlink:href="#aB"/><use transform="matrix(0.08641975308641976,0,0,0.08641975308641976,44.93827160493828,0)" xlink:href="#aF"/><use transform="matrix(0.08641975308641976,0,0,0.08641975308641976,53.58024691358024,0)" xlink:href="#ax"/><use transform="matrix(0.08641975308641976,0,0,0.08641975308641976,67.32098765432099,0)" xlink:href="#aK"/></g></defs></g></svg>